<svg width="856" height="582" viewBox="0 0 856 582" fill="none" xmlns="http://www.w3.org/2000/svg">
<g clip-path="url(#clip0_388_281)">
<path d="M519.742 326.238C521.201 326.238 522.6 326.817 523.631 327.848C524.663 328.88 525.242 330.279 525.242 331.737V384.944H630.742C632.201 384.944 633.6 385.523 634.631 386.555C635.663 387.586 636.242 388.985 636.242 390.444C636.242 391.902 635.663 393.301 634.631 394.333C633.6 395.364 632.201 395.944 630.742 395.944H525.242V579.944H514.242V331.737C514.242 330.279 514.822 328.88 515.853 327.848C516.885 326.817 518.284 326.238 519.742 326.238Z" fill="#E6E6E6"/>
<path d="M226.146 578.694L206.314 579.242C203.301 579.397 200.321 578.561 197.828 576.863C195.674 575.261 194.686 573.095 195.119 570.92L199.022 551.308C199.758 547.608 204.292 544.81 209.802 544.658L220.754 544.356C226.265 544.204 230.946 546.746 231.885 550.4L236.864 569.768C237.416 571.915 236.549 574.132 234.488 575.851C232.092 577.684 229.162 578.683 226.146 578.694Z" fill="#3F3D56"/>
<path d="M346.779 578.134L326.947 578.681C323.934 578.836 320.954 578.001 318.461 576.302C316.307 574.7 315.319 572.535 315.752 570.36L319.655 550.747C320.39 547.047 324.924 544.25 330.435 544.098L341.387 543.795C346.898 543.643 351.579 546.186 352.518 549.84L357.497 569.207C358.049 571.355 357.182 573.572 355.12 575.29C352.725 577.123 349.795 578.122 346.779 578.134Z" fill="#3F3D56"/>
<path d="M157.281 411.629C156.375 411.239 155.63 410.551 155.168 409.679C154.706 408.807 154.556 407.804 154.742 406.835C154.928 405.866 155.439 404.989 156.191 404.351C156.943 403.712 157.89 403.349 158.876 403.322L384.344 397.096C384.913 397.08 385.478 397.176 386.01 397.379C386.541 397.582 387.027 397.888 387.44 398.278C387.853 398.669 388.185 399.138 388.417 399.657C388.649 400.176 388.777 400.735 388.793 401.304C388.823 402.452 388.397 403.565 387.608 404.399C386.819 405.233 385.731 405.72 384.584 405.753L159.115 411.978C158.486 411.997 157.86 411.878 157.281 411.629Z" fill="#3F3D56"/>
<path d="M240.492 336.989L176.043 338.768L182.052 556.366L246.501 554.586L240.492 336.989Z" fill="#E6E6E6"/>
<path d="M242.127 333.079L229.738 366.828L229.749 520.587L244.845 524.916L242.127 333.079Z" fill="#CCCCCC"/>
<path d="M207.93 280.122C195.873 280.464 186.673 301.331 186.895 309.474L187.302 324.215L230.961 323.01L230.554 308.268C230.325 300.126 219.988 279.798 207.93 280.122Z" fill="#3F3D56"/>
<path d="M176.878 428.881C174.625 428.94 172.44 428.104 170.804 426.555C169.167 425.006 168.211 422.871 168.146 420.619L167.484 396.628C167.421 394.374 168.257 392.188 169.806 390.551C171.356 388.913 173.492 387.959 175.746 387.896C177.999 387.834 180.185 388.67 181.823 390.219C183.46 391.769 184.415 393.905 184.477 396.158L185.14 420.149C185.199 422.402 184.363 424.586 182.814 426.223C181.265 427.86 179.13 428.816 176.878 428.881Z" fill="#3F3D56"/>
<path d="M193.235 339.284L192.93 323.429L197.088 323.326L197.393 339.13L201.162 569.476L197.003 569.591" fill="#3F3D56"/>
<path d="M247.882 376.361L173.144 378.425C166.005 369.719 165.357 332.632 180.254 325.574L186.097 315.653L231.139 313.454L236.403 323.9C243.814 330.205 247.635 367.061 247.882 376.361Z" fill="#E6E6E6"/>
<path d="M183.152 465.568L144.193 493.088L137.387 555.138L182.835 539.953L183.152 465.568Z" fill="#E6E6E6"/>
<path d="M364.902 334.324L300.453 336.103L306.462 553.701L370.911 551.921L364.902 334.324Z" fill="#E6E6E6"/>
<path d="M301.996 333.806L315.257 367.222L319.236 520.93L304.257 525.649L301.996 333.806Z" fill="#CCCCCC"/>
<path d="M397.131 273.911C401.796 273.911 405.578 268.84 405.578 262.584C405.578 256.328 401.796 251.256 397.131 251.256C392.466 251.256 388.684 256.328 388.684 262.584C388.684 268.84 392.466 273.911 397.131 273.911Z" fill="#E6E6E6"/>
<path d="M331.083 277.492C319.025 277.834 309.826 298.701 310.047 306.844L310.454 321.585L354.113 320.38L353.706 305.638C353.477 297.495 343.141 277.168 331.083 277.492Z" fill="#3F3D56"/>
<path d="M343.567 344.247L343.262 328.392L347.42 328.288L347.725 344.093L351.494 574.439L347.335 574.554" fill="#3F3D56"/>
<path d="M371.032 373.731L296.294 375.795C294.991 367.918 296.676 331.162 303.405 322.943L309.247 313.023L354.289 310.824L359.554 321.269C372.852 322.353 377.504 358.473 371.032 373.731Z" fill="#E6E6E6"/>
<path d="M368.085 449.662L405.748 478.93L409.714 541.227L365.008 523.983L368.085 449.662Z" fill="#E6E6E6"/>
<path d="M357.567 161.121C317.154 161.121 270.71 116.275 229.618 137.582C105.203 202.096 122.329 94.1422 86.5859 53.9933L87.7594 51.6396C114.819 154.858 139.302 319.332 230.158 134.844C252.917 88.6305 327.613 160.064 371.582 157.957L371.658 160.786C367.014 161.01 362.317 161.122 357.567 161.121Z" fill="#F2F2F2"/>
<path d="M454.564 167.467C422.349 191.867 358.248 184.158 338.356 225.954C278.128 352.499 226.602 256.102 173.868 245.677L173.383 243.093C226.173 247.471 282.797 240.677 337.134 223.445C386.238 207.874 430.048 184.71 463.826 156.483L465.595 158.692C462.029 161.675 458.352 164.599 454.564 167.467Z" fill="#F2F2F2"/>
<path d="M104.131 161.911C108.796 161.911 112.578 156.84 112.578 150.584C112.578 144.328 108.796 139.256 104.131 139.256C99.4656 139.256 95.6836 144.328 95.6836 150.584C95.6836 156.84 99.4656 161.911 104.131 161.911Z" fill="#E6E6E6"/>
<path d="M366.131 69.9111C370.796 69.9111 374.578 64.8396 374.578 58.5836C374.578 52.3276 370.796 47.2561 366.131 47.2561C361.466 47.2561 357.684 52.3276 357.684 58.5836C357.684 64.8396 361.466 69.9111 366.131 69.9111Z" fill="#E6E6E6"/>
<path d="M181.472 207.629C177.61 210.202 173.658 204.078 177.594 201.619C181.456 199.046 185.408 205.17 181.472 207.629Z" fill="#E6E6E6"/>
<path d="M324.472 6.62918C320.61 9.20237 316.658 3.07794 320.594 0.619005C324.456 -1.95405 328.408 4.17039 324.472 6.62918Z" fill="#E6E6E6"/>
<path d="M408.748 125.801L406.291 125.262L406.829 122.804L405.191 122.445L404.652 124.903L402.195 124.365L401.836 126.003L404.293 126.542L403.755 128.999L405.393 129.358L405.932 126.9L408.389 127.439L408.748 125.801Z" fill="#E6E6E6"/>
<path d="M183.534 43.4395C189.445 43.4395 194.237 38.6479 194.237 32.7372C194.237 26.8264 189.445 22.0348 183.534 22.0348C177.624 22.0348 172.832 26.8264 172.832 32.7372C172.832 38.6479 177.624 43.4395 183.534 43.4395Z" fill="#FF6584"/>
<path d="M261.817 19.1905C249.759 19.5329 240.56 40.3996 240.781 48.5423L241.188 63.284L284.847 62.0784L284.44 47.3368C284.212 39.1942 273.875 18.867 261.817 19.1905Z" fill="#3F3D56"/>
<path d="M287.814 577.409L267.982 577.957C264.969 578.112 261.989 577.276 259.496 575.578C257.342 573.976 256.354 571.81 256.787 569.635L260.69 550.023C261.426 546.323 265.96 543.525 271.47 543.373L282.422 543.071C287.933 542.919 292.614 545.461 293.553 549.115L298.532 568.483C299.084 570.63 298.217 572.847 296.155 574.566C293.76 576.399 290.83 577.398 287.814 577.409Z" fill="#3F3D56"/>
<path d="M296.656 113.036L232.207 114.816L244.353 554.664L308.802 552.884L296.656 113.036Z" fill="#E6E6E6"/>
<path d="M270.868 325.949L270.562 310.094L274.721 309.991L275.026 325.795L278.795 556.141L274.635 556.256" fill="#3F3D56"/>
<path d="M309.344 153.292L222.018 155.703C220.496 146.5 222.465 103.553 230.327 93.9507L232.481 82.4887L292.778 80.8237L295.933 91.9947C304.591 99.3628 309.056 142.426 309.344 153.292Z" fill="#E6E6E6"/>
<path d="M294.686 82.1762L232.463 83.8944C230.166 83.9578 228.27 82.752 228.227 81.201C228.221 80.9776 228.254 80.7549 228.324 80.5425L237.989 50.7674C238.403 49.4924 240.05 48.556 241.973 48.5029L283.237 47.3635C285.16 47.3104 286.857 48.1544 287.34 49.4047L298.634 78.6011C299.211 80.0944 297.877 81.6483 295.654 82.0719C295.335 82.1325 295.011 82.1674 294.686 82.1762Z" fill="#E6E6E6"/>
<path d="M238.602 323.926C238.04 323.686 237.509 323.379 237.021 323.011C236.321 322.52 235.743 321.876 235.33 321.127C234.918 320.378 234.682 319.544 234.642 318.69L232.381 236.812C232.288 233.423 235.606 230.572 239.778 230.456L295.482 228.918C299.655 228.802 303.125 231.467 303.219 234.856L305.48 316.734C305.486 317.589 305.297 318.434 304.927 319.205C304.556 319.976 304.014 320.651 303.343 321.18C301.855 322.392 300 323.065 298.081 323.09L242.379 324.628C241.084 324.671 239.795 324.432 238.602 323.926Z" fill="#3F3D56"/>
<path d="M721.01 562.528H699.01V402.651C717.412 401.331 731.242 395.696 731.242 388.944C731.242 381.212 713.11 374.944 690.742 374.944C668.375 374.944 650.242 381.212 650.242 388.944C650.242 395.761 664.342 401.438 683.01 402.686V562.528H661.01C658.888 562.528 656.853 563.371 655.353 564.871C653.852 566.372 653.01 568.407 653.01 570.528C653.01 572.65 653.852 574.685 655.353 576.185C656.853 577.685 658.888 578.528 661.01 578.528H721.01C723.131 578.528 725.166 577.685 726.666 576.185C728.167 574.685 729.01 572.65 729.01 570.528C729.01 568.407 728.167 566.372 726.666 564.871C725.166 563.371 723.131 562.528 721.01 562.528Z" fill="#E6E6E6"/>
<path d="M676.846 481.363L669.619 489.238L635.805 465.112L646.47 453.489L676.846 481.363Z" fill="#A0616A"/>
<path d="M658.37 502.148C658.441 503.909 658.861 505.639 659.605 507.236C660.349 508.834 661.403 510.268 662.705 511.456L663.024 511.752L672.501 501.423L686.322 486.359L676.119 476.993L674.277 479.005L674.084 479.212L664.903 483.555L662.957 484.48L662.624 484.635L661.892 492.5V492.508C660.694 493.801 659.767 495.319 659.162 496.974C658.557 498.629 658.288 500.388 658.37 502.148Z" fill="#2F2E41"/>
<path d="M714.288 559.924L704.061 563.031L687.211 525.063L702.305 520.478L714.288 559.924Z" fill="#A0616A"/>
<path d="M686.801 578.643L686.926 579.064L719.902 569.047L715.877 555.796L713.273 556.587L712.999 556.669L700.74 555.544L700.377 555.515L695.738 561.914C692.335 562.948 689.481 565.291 687.805 568.428C686.129 571.565 685.768 575.239 686.801 578.643Z" fill="#2F2E41"/>
<path d="M629.958 361.128C629.958 361.128 564.664 424.17 605.942 443.684H618.7C621.473 434.669 625.736 426.183 631.311 418.576C632.517 416.999 637.033 417.319 638.287 415.782C645.944 406.395 654.245 398.334 659.978 398.654L658.606 442.212L656.387 457.749C655.221 465.781 688.114 535.91 688.114 535.91L708.788 527.785C708.788 527.785 687.248 470.023 686.996 461.696L704.257 370.134L629.958 361.128Z" fill="#2F2E41"/>
<path d="M602.805 439.939L606.295 444.349C606.295 444.349 638.393 466.805 639.495 468.903L644.567 473.703L656.841 460.583L650.458 452.583C645.35 446.18 638.751 441.128 631.237 437.867L621.455 429.188L602.805 439.939Z" fill="#2F2E41"/>
<path d="M718.423 379.131L712.578 322.553L711.035 299.268L727.396 296.31C727.396 296.31 726.747 312.96 728.891 322.354C731.006 331.623 729.171 377.889 729.04 379.126C730.242 380.2 731.089 381.614 731.469 383.181C731.85 384.747 731.746 386.392 731.171 387.898C730.597 389.403 729.578 390.699 728.251 391.614C726.924 392.528 725.35 393.019 723.738 393.019C722.127 393.02 720.553 392.532 719.224 391.618C717.896 390.705 716.877 389.41 716.301 387.905C715.725 386.399 715.619 384.755 715.998 383.188C716.377 381.621 717.223 380.207 718.423 379.131Z" fill="#A0616A"/>
<path d="M672.13 223.562C683.966 223.562 693.56 213.967 693.56 202.131C693.56 190.295 683.966 180.7 672.13 180.7C660.294 180.7 650.699 190.295 650.699 202.131C650.699 213.967 660.294 223.562 672.13 223.562Z" fill="#A0616A"/>
<path d="M697.575 197.52C698.203 193.918 698.692 189.25 696.894 185.099C695.374 181.607 691.574 178.332 687.349 178.774C687.549 177.985 687.527 177.157 687.285 176.38C687.042 175.603 686.589 174.909 685.976 174.375C684.601 173.295 682.997 172.541 681.288 172.17C677.317 171.003 673.204 169.793 668.957 169.771C664.19 169.745 659.966 171.378 657.376 174.257L657.313 174.35L656.537 176.204C656.433 176.452 656.276 176.676 656.078 176.858C655.88 177.041 655.644 177.178 655.388 177.261C655.131 177.346 654.858 177.373 654.59 177.34C654.321 177.307 654.063 177.215 653.834 177.071C653.583 176.916 653.296 176.83 653.001 176.82C652.706 176.811 652.414 176.878 652.154 177.016C651.893 177.154 651.673 177.358 651.515 177.607C651.357 177.856 651.267 178.142 651.254 178.437L651.212 179.228L650.1 178.784C649.821 178.672 649.517 178.635 649.22 178.679C648.922 178.723 648.642 178.846 648.408 179.035C648.173 179.223 647.994 179.471 647.887 179.752C647.781 180.034 647.751 180.338 647.802 180.635L647.95 181.576C647.71 181.532 647.465 181.538 647.228 181.591C646.991 181.644 646.767 181.745 646.57 181.887C646.287 182.094 646.078 182.387 645.972 182.721C645.866 183.055 645.869 183.414 645.98 183.747C646.843 186.208 648.317 188.41 650.264 190.146C651.138 190.936 652.117 191.602 653.173 192.124C653.392 192.234 653.62 192.339 653.857 192.438C662.398 196.1 671.536 198.17 680.821 198.546C679.943 200.221 679.375 202.041 679.146 203.918C679.019 204.983 679.187 206.063 679.63 207.04C680.073 208.017 680.775 208.854 681.66 209.46C682.044 209.679 682.447 209.864 682.864 210.011C683.263 210.158 683.649 210.337 684.019 210.546C684.561 210.874 685.007 211.339 685.312 211.895C685.616 212.45 685.769 213.077 685.754 213.71C685.739 214.344 685.557 214.962 685.226 215.503C684.895 216.043 684.428 216.487 683.871 216.789C683.871 216.789 685.465 218.736 685.721 218.703C686.737 218.472 687.655 217.929 688.346 217.15C692.987 212.643 696.092 206.043 697.575 197.52Z" fill="#2F2E41"/>
<path d="M791.4 528.793L792.331 507.85C802.041 502.659 812.871 499.918 823.881 499.863C808.728 512.252 810.622 536.132 800.348 552.792C797.104 557.963 792.738 562.339 787.574 565.593C782.409 568.848 776.578 570.899 770.513 571.593L757.833 579.357C756.093 569.657 756.476 559.695 758.957 550.158C761.438 540.62 765.957 531.734 772.203 524.111C775.749 519.87 779.815 516.091 784.305 512.866C787.342 520.874 791.4 528.793 791.4 528.793Z" fill="#F2F2F2"/>
<path d="M855.157 580.354C855.157 580.558 855.118 580.76 855.04 580.949C854.962 581.137 854.847 581.309 854.703 581.453C854.559 581.598 854.387 581.712 854.198 581.79C854.01 581.868 853.808 581.907 853.603 581.907H1.55322C1.14128 581.907 0.746211 581.743 0.454926 581.452C0.16364 581.161 0 580.766 0 580.354C0 579.942 0.16364 579.547 0.454926 579.255C0.746211 578.964 1.14128 578.8 1.55322 578.8H853.603C853.808 578.8 854.01 578.84 854.198 578.917C854.387 578.995 854.559 579.11 854.703 579.254C854.847 579.398 854.962 579.57 855.04 579.758C855.118 579.947 855.157 580.149 855.157 580.354Z" fill="#CCCCCC"/>
<path d="M366.498 423.566C364.246 423.626 362.061 422.789 360.424 421.24C358.788 419.691 357.832 417.557 357.767 415.304L357.105 391.313C357.045 389.061 357.882 386.878 359.431 385.243C360.981 383.608 363.115 382.655 365.367 382.593C367.619 382.53 369.803 383.364 371.44 384.912C373.077 386.459 374.033 388.592 374.098 390.844L374.761 414.835C374.82 417.087 373.984 419.272 372.435 420.909C370.886 422.546 368.751 423.501 366.498 423.566Z" fill="#3F3D56"/>
<path d="M741.354 511.248C728.442 511.248 714.29 510.76 698.898 509.784C619.284 504.728 516.16 487.151 408.522 460.292C300.884 433.433 201.591 400.498 128.936 367.558C93.5435 351.511 66.38 336.321 48.2008 322.41C28.9537 307.683 20.5348 294.846 23.1768 284.257C28.3248 263.628 73.9078 259.115 111.241 258.962L111.254 261.962C59.9855 262.172 29.7399 270.349 26.088 284.984C21.4361 303.624 59.3746 332.725 130.175 364.825C202.671 397.693 301.78 430.564 409.248 457.382C516.715 484.198 619.65 501.745 699.088 506.79C776.667 511.718 823.831 503.853 828.483 485.212C832.344 469.735 806.884 446.936 756.793 421.014L758.172 418.35C794.569 437.186 836.818 464.201 831.394 485.938C828.751 496.527 815.288 503.903 791.379 507.861C777.749 510.117 761.008 511.248 741.354 511.248Z" fill="#CCCCCC"/>
<path d="M56.0578 491.595C45.8117 491.595 39.1505 489.049 36.2023 483.988C30.3883 474.007 40.1256 456.494 65.1432 431.937L67.2448 434.077C44.006 456.89 33.902 474.078 38.7941 482.478C41.8898 487.79 51.1027 489.695 65.4425 487.982C79.6779 486.283 98.5431 481.217 121.514 472.927C168.805 455.86 228.137 427.071 288.579 391.863C349.02 356.656 403.33 319.246 441.506 286.528C448.839 280.242 455.493 274.195 461.285 268.556C468.888 261.335 475.903 253.517 482.261 245.179C490.824 233.552 493.714 224.598 490.619 219.284C485.449 210.41 463.731 211.244 429.463 221.637L428.592 218.766C465.359 207.617 487.1 207.283 493.211 217.775C497.009 224.293 494.137 234.112 484.677 246.958C478.221 255.429 471.099 263.37 463.378 270.706C457.541 276.389 450.839 282.478 443.458 288.805C405.149 321.639 350.681 359.159 290.089 394.454C229.495 429.751 169.989 458.622 122.533 475.749C99.3479 484.116 80.2595 489.235 65.798 490.96C62.5666 491.363 59.3142 491.575 56.0578 491.595Z" fill="#CCCCCC"/>
<path d="M603.602 368.423C596.188 368.275 556.362 367.132 549.832 367.413C549.462 366.12 537.082 381.986 536.781 382.084C536.58 382.296 536.434 382.553 536.354 382.834C536.274 383.114 536.264 383.41 536.323 383.696C536.382 383.981 536.51 384.248 536.695 384.474C536.88 384.7 537.117 384.877 537.385 384.992C538.113 385.434 602.317 384.246 603.095 384.401C603.432 384.396 603.76 384.295 604.042 384.112C604.324 383.928 604.548 383.668 604.689 383.363L605.118 382.401C605.163 380.757 605.701 372.353 605.218 370.917C605.336 370.647 605.386 370.352 605.362 370.058C605.339 369.765 605.243 369.481 605.082 369.234C604.922 368.987 604.703 368.783 604.445 368.642C604.186 368.5 603.897 368.425 603.602 368.423Z" fill="#E6E6E6"/>
<path opacity="0.17" d="M605.117 382.4C604.74 383.305 604.258 384.443 603.094 384.401L538.063 385.131C537.755 385.128 537.454 385.045 537.187 384.891C536.921 384.738 536.698 384.518 536.541 384.254C536.384 383.989 536.297 383.689 536.29 383.382C536.282 383.074 536.354 382.77 536.497 382.498L605.117 382.4Z" fill="black"/>
<path d="M550.134 367.218C549.434 366.008 532.047 279.98 530.596 279.261L518.726 264.74L517.665 263.942C516.19 263.131 512.651 263.679 512.969 265.933C515.758 279.303 533.695 355.451 534.088 367.323L536.247 382.447C536.286 382.705 536.378 382.951 536.517 383.171C536.657 383.39 536.841 383.578 537.058 383.722C537.274 383.867 537.519 383.964 537.775 384.008C538.032 384.051 538.295 384.041 538.547 383.977C539.166 383.91 539.757 383.684 540.261 383.319C540.766 382.954 541.167 382.465 541.424 381.898C541.586 381.364 550.946 367.528 550.134 367.218Z" fill="#E6E6E6"/>
<path opacity="0.17" d="M518.725 264.74L541.429 381.901C540.669 383.823 537.117 385.169 536.289 382.648C536.275 382.645 512.998 266.005 512.974 265.935C512.726 263.128 517.365 263.039 518.725 264.74Z" fill="black"/>
<path d="M596.16 376.71L599.35 376.84C599.4 375.906 599.554 374.98 599.81 374.08C600.29 371.8 600.72 369.09 598.73 369.1C597.38 368.97 596.92 370.68 596.68 372.54C596.618 373.942 596.444 375.336 596.16 376.71Z" fill="#2F2E41"/>
<path d="M577.859 372.42L580.009 372.5L581.049 372.54C581.029 371.4 581.559 369.05 580.269 368.47C580.064 368.382 579.843 368.338 579.619 368.34C578.409 368.27 578.049 369.19 577.939 370.25C577.869 370.89 577.899 371.57 577.879 372.1C577.879 372.21 577.869 372.32 577.859 372.42Z" fill="#2F2E41"/>
<path d="M571.488 372.16L573.648 372.25L574.678 372.29C574.658 370.98 575.348 368.12 573.248 368.08C571.308 367.97 571.558 370.44 571.508 371.84C571.508 371.95 571.498 372.06 571.488 372.16Z" fill="#2F2E41"/>
<path d="M565.117 371.91L567.267 371.99L568.307 372.03C568.287 370.73 568.977 367.87 566.877 367.83C564.937 367.71 565.187 370.18 565.137 371.59C565.137 371.7 565.127 371.81 565.117 371.91Z" fill="#2F2E41"/>
<path d="M558.75 371.65L560.91 371.74L561.94 371.78C561.92 370.47 562.61 367.62 560.51 367.57C558.57 367.46 558.82 369.93 558.77 371.33C558.77 371.44 558.76 371.55 558.75 371.65Z" fill="#2F2E41"/>
<path d="M552.379 371.4L554.529 371.48L555.569 371.52C555.549 370.32 556.129 367.81 554.589 367.38H554.579C554.436 367.338 554.288 367.318 554.139 367.32C553.957 367.304 553.774 367.321 553.599 367.37H553.589C552.249 367.72 552.439 369.82 552.399 371.08C552.399 371.19 552.389 371.3 552.379 371.4Z" fill="#2F2E41"/>
<path d="M589.73 370.72L592.92 370.85C592.92 370.73 592.92 370.6 592.93 370.45C593.009 369.69 593.023 368.923 592.97 368.16C592.86 367.32 592.5 366.66 591.49 366.64C590.46 366.58 590.05 367.24 589.89 368.09C589.853 368.235 589.827 368.382 589.81 368.53V368.54C589.73 369.32 589.78 370.16 589.73 370.72Z" fill="#2F2E41"/>
<path d="M583.359 370.46L586.549 370.59C586.617 369.732 586.637 368.871 586.609 368.01C586.519 367.13 586.169 366.41 585.119 366.39C584.059 366.32 583.649 367.04 583.489 367.93C583.339 368.79 583.419 369.82 583.359 370.46Z" fill="#2F2E41"/>
<path d="M576.988 370.21L577.938 370.25L580.178 370.34C580.168 369.86 580.258 369.16 580.268 368.47C580.277 368.263 580.27 368.056 580.248 367.85C580.168 366.92 579.838 366.15 578.748 366.13C577.638 366.07 577.248 366.84 577.108 367.78C576.968 368.62 577.048 369.59 576.988 370.21Z" fill="#2F2E41"/>
<path d="M589.789 376.46L592.979 376.58C592.969 375.28 593.649 372.42 591.549 372.38C589.449 372.25 589.909 375.15 589.789 376.46Z" fill="#2F2E41"/>
<path d="M583.418 376.2L586.608 376.33C586.598 375.02 587.278 372.16 585.178 372.12C583.078 372 583.538 374.9 583.418 376.2Z" fill="#2F2E41"/>
<path d="M577.047 375.95L580.237 376.07C580.227 375.14 580.577 373.42 580.007 372.5C579.882 372.297 579.705 372.13 579.494 372.019C579.283 371.908 579.045 371.857 578.807 371.87C578.479 371.836 578.15 371.917 577.877 372.1C576.857 372.77 577.147 374.89 577.047 375.95Z" fill="#2F2E41"/>
<path d="M570.68 375.69L573.87 375.82C573.86 374.89 574.2 373.18 573.65 372.25C573.525 372.043 573.347 371.875 573.134 371.762C572.921 371.649 572.68 371.597 572.44 371.61C572.112 371.574 571.783 371.656 571.51 371.84C570.49 372.53 570.78 374.64 570.68 375.69Z" fill="#2F2E41"/>
<path d="M564.309 375.44L567.499 375.56C567.489 374.63 567.839 372.91 567.269 371.99C567.144 371.787 566.967 371.62 566.756 371.509C566.544 371.399 566.307 371.347 566.069 371.36C565.741 371.326 565.412 371.407 565.139 371.59C564.119 372.26 564.409 374.38 564.309 375.44Z" fill="#2F2E41"/>
<path d="M557.938 375.18L561.128 375.31C561.118 374.38 561.457 372.67 560.907 371.74C560.784 371.533 560.606 371.363 560.393 371.25C560.179 371.137 559.938 371.085 559.697 371.1C559.37 371.064 559.04 371.146 558.767 371.33C557.747 372.02 558.038 374.13 557.938 375.18Z" fill="#2F2E41"/>
<path d="M551.57 374.93L554.76 375.05C554.75 374.12 555.09 372.41 554.53 371.48C554.407 371.276 554.23 371.109 554.018 370.998C553.807 370.887 553.569 370.836 553.33 370.85C553.003 370.816 552.674 370.897 552.4 371.08C551.38 371.76 551.67 373.87 551.57 374.93Z" fill="#2F2E41"/>
<path d="M587.596 365.686L611.909 314.266L621.101 292.816L606.654 284.589C606.654 284.589 601.732 300.509 596.589 308.657C591.514 316.697 577.871 360.943 577.583 362.153C576.093 362.768 574.824 363.82 573.945 365.171C573.066 366.521 572.617 368.107 572.659 369.719C572.701 371.33 573.23 372.89 574.178 374.194C575.126 375.498 576.448 376.483 577.968 377.019C579.487 377.555 581.134 377.618 582.691 377.198C584.247 376.777 585.639 375.895 586.682 374.667C587.726 373.438 588.372 371.922 588.535 370.318C588.698 368.715 588.37 367.1 587.596 365.686Z" fill="#A0616A"/>
<path d="M219.752 358.573L200.852 359.095C197.204 359.196 194.104 354.464 193.94 348.549C193.777 342.634 196.612 337.738 200.259 337.637L219.159 337.115C222.806 337.015 225.907 341.746 226.07 347.662C226.234 353.577 223.399 358.473 219.752 358.573Z" fill="url(#paint0_linear_388_281)"/>
<path d="M342.996 359.254L324.096 359.776C320.448 359.877 317.327 354.402 317.139 347.574C316.95 340.746 319.765 335.108 323.412 335.007L342.312 334.485C345.959 334.385 349.08 339.859 349.269 346.687C349.457 353.515 346.643 359.153 342.996 359.254Z" fill="url(#paint1_linear_388_281)"/>
<path d="M274.253 76.9068L255.353 77.4287C251.706 77.5294 248.622 73.4089 248.48 68.2445C248.337 63.0802 251.189 58.7957 254.836 58.695L273.736 58.1731C277.383 58.0724 280.467 62.193 280.61 67.3573C280.752 72.5216 277.901 76.8061 274.253 76.9068Z" fill="url(#paint2_linear_388_281)"/>
<path d="M624.513 364.237C624.846 364.712 625.281 365.106 625.785 365.391C626.617 365.862 627.519 366.196 628.456 366.383C643.157 369.72 691.182 376.637 703.649 373.338C705.18 372.938 706.179 372.376 706.505 371.636C707.548 369.298 707.415 359.421 706.801 347.494C706.69 345.26 704.226 342.84 704.078 340.502C703.974 338.749 706.187 337.099 706.068 335.316C705.254 323.256 704.204 310.967 703.501 303.198C703.057 298.204 702.754 295.082 702.754 295.082L710.337 247.265L709.982 246.68L709.583 246.48L685.13 234.376L683.798 230.973C683.412 229.993 682.742 229.151 681.872 228.556C681.003 227.962 679.976 227.641 678.923 227.636L662.816 227.57C661.98 227.565 661.155 227.76 660.41 228.138C659.665 228.517 659.021 229.067 658.532 229.745L654.167 235.789L625.312 254.286L625.423 254.626L638.963 295.829L639.029 299.04V299.048L639.532 324.869L638.134 328.369L639.71 334.11C639.71 334.11 638.985 340.82 635.1 345.807C631.579 350.335 627.095 355.056 625.068 358.888V358.895C623.943 361.012 623.566 362.846 624.513 364.237Z" fill="url(#paint3_linear_388_281)"/>
<path d="M698.943 293.447L703.501 303.198L705.092 306.594L709.375 329.027L711.514 331.299L713.356 338.631L714.222 338.453L734.383 334.28C735.408 332.571 735.812 330.561 735.527 328.589C735.241 326.616 734.283 324.803 732.814 323.456C732.504 323.175 732.245 322.901 732.252 322.642C732.511 307.038 731.557 278.546 722.937 266.819C720.2 263.098 718.557 259.391 716.167 256.802C716.16 256.794 716.16 256.787 716.153 256.787L710.337 247.265L709.982 246.68L709.583 246.48L698.943 293.447Z" fill="url(#paint4_linear_388_281)"/>
<path d="M519.41 269.531L530.94 285.603L543.882 347.068L537.866 352.316L519.41 269.531Z" fill="url(#paint5_linear_388_281)"/>
<path d="M587.448 318.079L605.835 329.172L610.005 322.869L612.783 321.436L624.277 301.699L634.439 291.345L647.867 248.426L630.397 251.047L630.374 251.055C627.261 252.705 624.477 255.656 620.661 258.257C608.635 266.453 598.266 293.009 593.325 307.816C593.244 308.059 592.912 308.228 592.525 308.394C590.693 309.177 589.188 310.568 588.263 312.333C587.338 314.097 587.05 316.127 587.448 318.079Z" fill="url(#paint6_linear_388_281)"/>
</g>
<defs>
<linearGradient id="paint0_linear_388_281" x1="193.934" y1="372.065" x2="428.658" y2="-77.915" gradientUnits="userSpaceOnUse">
<stop offset="0.161841" stop-color="#7000FF"/>
<stop offset="1" stop-color="#FF5D3D"/>
</linearGradient>
<linearGradient id="paint1_linear_388_281" x1="193.934" y1="372.065" x2="428.658" y2="-77.915" gradientUnits="userSpaceOnUse">
<stop offset="0.161841" stop-color="#7000FF"/>
<stop offset="1" stop-color="#FF5D3D"/>
</linearGradient>
<linearGradient id="paint2_linear_388_281" x1="193.934" y1="372.065" x2="428.658" y2="-77.915" gradientUnits="userSpaceOnUse">
<stop offset="0.161841" stop-color="#7000FF"/>
<stop offset="1" stop-color="#FF5D3D"/>
</linearGradient>
<linearGradient id="paint3_linear_388_281" x1="193.934" y1="372.065" x2="428.658" y2="-77.915" gradientUnits="userSpaceOnUse">
<stop offset="0.161841" stop-color="#7000FF"/>
<stop offset="1" stop-color="#FF5D3D"/>
</linearGradient>
<linearGradient id="paint4_linear_388_281" x1="193.934" y1="372.065" x2="428.658" y2="-77.915" gradientUnits="userSpaceOnUse">
<stop offset="0.161841" stop-color="#7000FF"/>
<stop offset="1" stop-color="#FF5D3D"/>
</linearGradient>
<linearGradient id="paint5_linear_388_281" x1="193.934" y1="372.065" x2="428.658" y2="-77.915" gradientUnits="userSpaceOnUse">
<stop offset="0.161841" stop-color="#7000FF"/>
<stop offset="1" stop-color="#FF5D3D"/>
</linearGradient>
<linearGradient id="paint6_linear_388_281" x1="193.934" y1="372.065" x2="428.658" y2="-77.915" gradientUnits="userSpaceOnUse">
<stop offset="0.161841" stop-color="#7000FF"/>
<stop offset="1" stop-color="#FF5D3D"/>
</linearGradient>
<clipPath id="clip0_388_281">
<rect width="855.157" height="581.907" fill="white"/>
</clipPath>
</defs>
</svg>
