<svg width="802" height="834" viewBox="0 0 802 834" fill="none" xmlns="http://www.w3.org/2000/svg">
<g clip-path="url(#clip0_388_441)">
<path d="M802 432.54C802.091 488.398 790.454 543.653 767.84 594.73C766.89 596.87 765.93 599 764.94 601.12C764.8 601.45 764.64 601.78 764.49 602.11C764.11 602.92 763.73 603.74 763.34 604.55C763.06 605.14 762.78 605.72 762.49 606.31C761.8 607.75 761.1 609.183 760.39 610.61C759.61 612.18 758.82 613.747 758.02 615.31C757.22 616.87 756.41 618.427 755.59 619.98C754.87 621.33 754.147 622.677 753.42 624.02C752.48 625.75 751.524 627.48 750.55 629.21C749.711 630.69 748.867 632.16 748.02 633.62C747.11 635.18 746.19 636.74 745.26 638.3L745.17 638.45C744.97 638.79 744.77 639.13 744.56 639.47C744.37 639.78 744.19 640.08 744 640.39C743.81 640.7 743.63 641 743.44 641.3V641.31C742.83 642.31 742.22 643.29 741.61 644.28L741.6 644.29C740.23 646.49 738.83 648.68 737.42 650.85C734.8 654.89 732.11 658.87 729.35 662.79C729.35 662.8 729.34 662.8 729.33 662.81C727.68 665.17 725.99 667.51 724.29 669.83C723.201 671.31 722.101 672.783 720.99 674.25C719.88 675.72 718.76 677.176 717.63 678.62C717.38 678.95 717.12 679.28 716.86 679.61C715.42 681.45 713.96 683.29 712.48 685.1C712.161 685.5 711.84 685.89 711.531 686.28C711.04 686.87 710.561 687.46 710.081 688.04C709.921 688.24 709.761 688.43 709.591 688.63C708.771 689.61 707.951 690.59 707.111 691.57V691.58C706.301 692.54 705.481 693.5 704.651 694.46C704.471 694.67 704.29 694.88 704.1 695.09C703.83 695.41 703.55 695.72 703.27 696.04C702.58 696.85 701.87 697.65 701.15 698.45C701.14 698.46 701.14 698.47 701.13 698.48L701.1 698.51V698.52C679.602 722.774 655.249 744.337 628.57 762.74C628.481 762.809 628.388 762.872 628.29 762.93C627.96 763.17 627.63 763.39 627.3 763.62C624.911 765.26 622.5 766.88 620.07 768.46C618.88 769.24 617.69 770.01 616.49 770.77V770.78C616.48 770.78 616.48 770.78 616.47 770.79H616.451L616.43 770.81L616.37 770.84C616.34 770.86 616.32 770.87 616.29 770.89C615.37 771.48 614.46 772.06 613.531 772.64C613.251 772.83 612.971 773 612.691 773.17C612.201 773.48 611.701 773.79 611.201 774.1C610.711 774.4 610.211 774.71 609.711 775.01C609.081 775.39 608.451 775.78 607.821 776.15C606.451 776.98 605.077 777.8 603.701 778.61C603.201 778.91 602.691 779.2 602.181 779.5C601.681 779.79 601.171 780.08 600.661 780.37C600.654 780.38 600.645 780.389 600.635 780.396C600.624 780.403 600.613 780.408 600.6 780.41L600.58 780.42L600.56 780.44H600.55C599.15 781.24 597.76 782.04 596.35 782.82L596.34 782.83C595.21 783.46 594.08 784.08 592.94 784.7C590.24 786.17 587.524 787.613 584.79 789.03C582.89 790.02 580.98 790.98 579.06 791.93C577.9 792.51 576.73 793.08 575.56 793.65C574.59 794.12 573.61 794.59 572.64 795.05C572.37 795.18 572.11 795.31 571.841 795.43C571.4 795.64 570.95 795.85 570.51 796.05C570.14 796.22 569.78 796.39 569.41 796.56C568.53 796.98 567.64 797.38 566.76 797.78C565.77 798.23 564.79 798.67 563.8 799.11C560.08 800.77 556.32 802.37 552.55 803.91C539.082 809.425 525.318 814.185 511.32 818.17C510.67 818.36 510.01 818.55 509.35 818.73C503.36 820.41 497.327 821.946 491.25 823.34C480.64 825.78 469.934 827.783 459.13 829.35C459.11 829.35 459.08 829.36 459.06 829.36C457.77 829.55 456.47 829.73 455.18 829.91C455.07 829.93 454.95 829.95 454.83 829.96C454.82 829.97 454.81 829.97 454.79 829.96H454.78C453.35 830.15 451.92 830.34 450.48 830.52C450.38 830.54 450.28 830.55 450.18 830.56C448.841 830.72 447.49 830.88 446.14 831.03C444.69 831.19 443.24 831.34 441.78 831.49H441.77C439.55 831.71 437.33 831.92 435.11 832.1C435.07 832.1 435.03 832.11 434.99 832.11C434.11 832.19 433.23 832.25 432.35 832.32H432.341C421.99 833.14 411.544 833.546 401 833.54C389.551 833.54 378.217 833.063 367 832.11C366.96 832.11 366.92 832.1 366.88 832.1C364.49 831.9 362.104 831.68 359.72 831.44C359.091 831.38 358.47 831.31 357.841 831.25C357.72 831.24 357.6 831.23 357.48 831.21C357.291 831.19 357.1 831.17 356.9 831.15C356.8 831.14 356.69 831.13 356.591 831.11C355.76 831.02 354.93 830.93 354.091 830.83C353.161 830.72 352.22 830.61 351.291 830.49C350.36 830.38 349.42 830.26 348.491 830.13C348.291 830.11 348.081 830.09 347.881 830.05C347.201 829.97 346.521 829.88 345.851 829.78C345.521 829.74 345.201 829.69 344.881 829.64C344.231 829.55 343.591 829.46 342.94 829.36C342.92 829.36 342.891 829.35 342.871 829.35C322.45 826.401 302.292 821.857 282.581 815.76H282.571C281.501 815.43 280.43 815.09 279.361 814.75C279.041 814.66 278.721 814.56 278.401 814.45C275.621 813.56 272.857 812.64 270.111 811.69C266.321 810.39 262.557 809.03 258.821 807.61C257.801 807.22 256.791 806.83 255.771 806.44C253.741 805.64 251.721 804.84 249.71 804.02C246.281 802.62 242.874 801.177 239.49 799.69H239.48V799.68C236.811 798.5 234.15 797.3 231.51 796.05C231.03 795.83 230.55 795.61 230.071 795.38C229.979 795.353 229.891 795.312 229.811 795.26C229.801 795.26 229.801 795.25 229.791 795.25C229.1 794.93 228.411 794.6 227.72 794.27L227.7 794.26C224.17 792.57 220.67 790.827 217.2 789.03C212.901 786.81 208.637 784.51 204.411 782.13C200.911 780.16 197.444 778.137 194.011 776.06C189.94 773.6 185.914 771.067 181.93 768.46C180.69 767.65 179.45 766.83 178.21 766C177.091 765.25 175.98 764.5 174.87 763.74C170.95 761.06 167.08 758.31 163.26 755.49C159.31 752.58 155.417 749.597 151.581 746.54C146.581 742.56 141.68 738.466 136.88 734.26C127.93 726.44 119.347 718.227 111.13 709.62C110.87 709.35 110.61 709.08 110.35 708.8C109.53 707.94 108.72 707.08 107.91 706.21C106.73 704.95 105.561 703.67 104.401 702.39C102.48 700.3 100.594 698.186 98.7405 696.05H98.7305V696.04C97.6005 694.75 96.5005 693.47 95.3805 692.17V692.16C95.2205 691.98 95.0705 691.8 94.9204 691.62C94.2104 690.79 93.5205 689.97 92.8306 689.13V689.12C91.8905 688.01 90.9704 686.9 90.0705 685.78C89.8705 685.54 89.6804 685.31 89.4905 685.07H89.4805V685.06C88.7405 684.16 88.0105 683.25 87.2906 682.34C86.9204 681.89 86.5606 681.43 86.2005 680.97H86.1905V680.96C84.0105 678.21 81.8739 675.433 79.7805 672.63V672.62C79.2005 671.85 78.6305 671.08 78.0705 670.3H78.0605C75.3805 666.68 72.7705 663.017 70.2305 659.31V659.3C69.2705 657.91 68.3205 656.51 67.3805 655.1C66.4404 653.69 65.5104 652.277 64.5905 650.86H64.5806C63.6305 649.4 62.6905 647.933 61.7605 646.46C61.7105 646.38 61.6605 646.31 61.6205 646.24C60.7005 644.79 59.7938 643.33 58.9005 641.86C58.1804 640.69 57.4705 639.53 56.7805 638.36C56.3005 637.57 55.8305 636.79 55.3705 635.99C55.2005 635.72 55.0506 635.45 54.9005 635.19C53.8406 633.38 52.8005 631.57 51.7605 629.75C50.5505 627.61 49.3505 625.45 48.1804 623.29C47.7004 622.4 47.2204 621.5 46.7505 620.6C46.5806 620.31 46.4304 620.02 46.2805 619.72C45.7204 618.66 45.1605 617.6 44.6104 616.53C44.0605 615.47 43.5104 614.4 42.9704 613.33C42.4304 612.26 41.8904 611.19 41.3604 610.11C40.9604 609.3 40.5605 608.48 40.1704 607.67C40.1299 607.602 40.0933 607.532 40.0605 607.46C39.8805 607.08 39.6904 606.71 39.5205 606.33C39.4805 606.272 39.4501 606.208 39.4304 606.14C39.0205 605.3 38.6205 604.47 38.2304 603.63C37.7104 602.55 37.2104 601.46 36.7104 600.37C36.3504 599.61 36.0104 598.84 35.6605 598.07C35.1605 596.99 34.6705 595.9 34.1904 594.8C33.6804 593.67 33.1904 592.53 32.7004 591.39C32.5705 591.1 32.4504 590.82 32.3305 590.53C32.1004 590.01 31.8805 589.49 31.6605 588.97C31.0705 587.59 30.4905 586.19 29.9204 584.8C29.2705 583.23 28.6372 581.657 28.0205 580.08C27.4304 578.61 26.8571 577.137 26.3005 575.66L26.0905 575.12V575.11C17.4015 552.274 10.8272 528.688 6.45039 504.65V504.64C3.95475 490.915 2.17898 477.07 1.13038 463.16C1.07044 462.4 1.02039 461.64 0.970392 460.88C0.310479 451.47 -0.0128557 442.023 0.000391007 432.54C0.000391007 428.33 0.0670546 424.14 0.200388 419.97C2.79326 332.789 33.8709 248.856 88.6804 181.01C91.0905 178.02 93.5439 175.067 96.0405 172.15C98.7805 168.95 101.567 165.793 104.401 162.68C106.36 160.52 108.344 158.387 110.35 156.28C110.388 156.237 110.428 156.197 110.47 156.16C110.68 155.93 110.9 155.7 111.13 155.47C123.37 142.651 136.449 130.662 150.28 119.58C151.86 118.3 153.44 117.05 155.04 115.82C156.46 114.71 157.88 113.61 159.31 112.54C160.97 111.28 162.64 110.036 164.32 108.81C173.07 102.4 182.08 96.3465 191.35 90.6498C195.22 88.2699 199.134 85.9566 203.091 83.7099C204.531 82.8798 205.99 82.0698 207.45 81.2597C209.43 80.1698 211.41 79.0898 213.41 78.0397C272.843 46.6438 339.205 30.6679 406.414 31.5764C473.623 32.4849 539.529 50.2487 598.09 83.2396C598.37 83.3898 598.65 83.5497 598.92 83.7099C600.64 84.6899 602.35 85.6699 604.05 86.6799C606.271 87.9799 608.474 89.3032 610.661 90.6499C621.701 97.4399 632.381 104.737 642.701 112.54C644.301 113.75 645.901 114.97 647.481 116.21C648.911 117.32 650.331 118.45 651.741 119.58C652.511 120.2 653.291 120.83 654.061 121.46C670.946 135.208 686.688 150.304 701.13 166.6L701.151 166.62C701.371 166.87 701.591 167.11 701.801 167.36C702.491 168.14 703.181 168.93 703.861 169.71C703.951 169.81 704.04 169.92 704.13 170.02C705.13 171.17 706.124 172.33 707.111 173.5C719.133 187.692 730.156 202.702 740.101 218.42C743.801 224.24 747.341 230.166 750.721 236.2C784.446 296.135 802.111 363.768 802 432.54Z" fill="#3F3D56"/>
<path d="M683.108 24.6824L707.108 674.371V674.383C706.298 675.501 705.478 676.619 704.648 677.737C704.198 678.354 703.738 678.96 703.268 679.577C702.578 680.52 701.868 681.452 701.148 682.384C701.138 682.395 701.138 682.407 701.128 682.419L701.098 682.454V682.465C680.049 710.25 655.693 735.366 628.568 757.259V757.515L628.288 757.48C627.958 757.76 627.628 758.016 627.298 758.284C624.908 760.194 622.498 762.081 620.068 763.921C618.878 764.829 617.685 765.726 616.488 766.611V766.623C616.478 766.623 616.478 766.623 616.468 766.635H616.448L616.428 766.658L616.368 766.693C616.338 766.716 616.318 766.728 616.288 766.751C615.368 767.438 614.458 768.114 613.528 768.789C613.248 769.011 612.968 769.208 612.688 769.406C612.198 769.767 611.698 770.129 611.198 770.49C610.708 770.839 610.208 771.2 609.708 771.549C607.718 772.97 605.708 774.368 603.698 775.742C603.198 776.091 602.688 776.429 602.178 776.779C601.678 777.116 601.168 777.454 600.658 777.792V777.827L600.598 777.838L600.578 777.85L600.558 777.873H600.548C599.148 778.805 597.758 779.737 596.348 780.645L596.338 780.657C595.208 781.391 594.078 782.113 592.938 782.835C590.238 784.547 587.518 786.236 584.788 787.878C582.888 789.031 580.978 790.149 579.058 791.255C577.898 791.931 576.728 792.595 575.558 793.258C574.588 793.806 573.608 794.353 572.638 794.889C572.368 795.04 572.108 795.192 571.838 795.331C571.398 795.576 570.948 795.821 570.508 796.054H231.508C231.028 795.797 230.548 795.541 230.068 795.273C229.975 795.241 229.887 795.193 229.808 795.133C229.798 795.133 229.798 795.122 229.788 795.122C229.098 794.749 228.408 794.365 227.718 793.98L227.698 793.969C224.168 792.001 220.668 789.97 217.198 787.878C209.328 783.149 201.598 778.114 194.008 772.772C189.938 769.907 185.912 766.957 181.928 763.921C180.688 762.977 179.448 762.022 178.208 761.056C177.088 760.182 175.978 759.309 174.868 758.424C170.948 755.302 167.078 752.1 163.258 748.815C159.308 745.426 155.415 741.952 151.578 738.392C146.578 733.756 141.678 728.989 136.878 724.09C127.928 714.982 119.345 705.417 111.128 695.393C110.868 695.078 110.608 694.764 110.348 694.438C108.338 691.98 106.355 689.492 104.398 686.973L124.398 24.6824C124.38 20.6602 125.116 16.6702 126.568 12.9193C129.608 5.2328 135.538 0.00354004 142.348 0.00354004H665.158C672.058 0.00354004 678.048 5.36104 681.048 13.2105C681.148 13.467 681.238 13.7232 681.328 13.9794C682.521 17.4213 683.123 21.0399 683.108 24.6824Z" fill="#3F3D56"/>
<path d="M190.609 75.0769C205.521 75.0769 217.609 60.9982 217.609 43.6313C217.609 26.2644 205.521 12.1858 190.609 12.1858C175.698 12.1858 163.609 26.2644 163.609 43.6313C163.609 60.9982 175.698 75.0769 190.609 75.0769Z" fill="white"/>
<path d="M476.606 127.908C431.086 139.881 380.65 147.165 329.367 149.159C321.851 149.569 314.318 149.517 306.808 149.006C290.305 147.618 276.17 142.431 260.427 139.597C252.858 138.238 244.428 137.244 236.809 135.776C238.569 133.592 240.361 131.434 242.185 129.303C258.615 130.691 275.3 135.235 291.927 137.346C320.191 140.941 351.86 136.93 373.287 127.039C383.682 122.239 391.645 116.249 402.004 111.427C403.413 110.704 404.939 110.236 406.511 110.047C409.791 109.747 412.669 111.069 415.014 112.253C432.394 121.026 457.626 128.156 481.047 124.233C482.793 125.6 479.477 127.156 476.606 127.908Z" fill="white"/>
<path d="M467.792 237.506C468.085 237.453 468.379 237.411 468.672 237.36C467.44 236.597 466.28 235.723 465.207 234.75L467.792 237.506Z" fill="white"/>
<path d="M659.712 261.201C646.322 262.271 632.862 263.068 619.332 263.591C609.044 264.147 598.731 264.077 588.452 263.381C565.862 261.471 546.512 254.381 524.962 250.501C505.212 246.951 481.212 245.241 468.672 237.361C501.082 231.751 534.662 243.171 568.082 247.421C595.115 250.745 622.518 249.392 649.092 243.421C652.792 249.241 656.332 255.168 659.712 261.201Z" fill="white"/>
<path d="M380.8 501.86V492.28C380.798 488.621 379.398 485.1 376.885 482.438C374.373 479.777 370.938 478.177 367.284 477.965V440.556H364.104V477.923H349.793V501.774H282.215V776.063H431.683V555.633C431.682 541.865 426.408 528.619 416.945 518.618C407.482 508.617 394.548 502.62 380.8 501.86Z" fill="#2F2E41"/>
<path d="M326.735 540.731H306.859V556.632H326.735V540.731Z" fill="white"/>
<path d="M359.333 540.731H339.457V556.632H359.333V540.731Z" fill="white"/>
<path d="M391.931 540.731H372.055V556.632H391.931V540.731Z" fill="white"/>
<path d="M326.735 581.278H306.859V597.179H326.735V581.278Z" fill="white"/>
<path d="M359.333 581.278H339.457V597.179H359.333V581.278Z" fill="white"/>
<path d="M391.931 581.278H372.055V597.179H391.931V581.278Z" fill="white"/>
<path d="M326.735 621.825H306.859V637.726H326.735V621.825Z" fill="white"/>
<path d="M359.333 621.825H339.457V637.726H359.333V621.825Z" fill="white"/>
<path d="M391.931 621.825H372.055V637.726H391.931V621.825Z" fill="white"/>
<path d="M326.735 662.372H306.859V678.273H326.735V662.372Z" fill="white"/>
<path d="M359.333 662.372H339.457V678.273H359.333V662.372Z" fill="white"/>
<path d="M391.931 662.372H372.055V678.273H391.931V662.372Z" fill="white"/>
<path d="M326.735 702.92H306.859V718.82H326.735V702.92Z" fill="white"/>
<path d="M359.333 702.92H339.457V718.82H359.333V702.92Z" fill="white"/>
<path d="M391.931 702.92H372.055V718.82H391.931V702.92Z" fill="white"/>
<path d="M326.735 743.467H306.859V759.367H326.735V743.467Z" fill="white"/>
<path d="M359.333 743.467H339.457V759.367H359.333V743.467Z" fill="white"/>
<path d="M391.931 743.467H372.055V759.367H391.931V743.467Z" fill="white"/>
<path d="M286.339 422.06V776.06H194.009C189.939 773.6 185.912 771.067 181.929 768.46C180.689 767.65 179.449 766.83 178.209 766C177.089 765.25 175.979 764.5 174.869 763.74C170.949 761.06 167.079 758.31 163.259 755.49C159.309 752.58 155.416 749.596 151.579 746.54C146.579 742.56 141.679 738.466 136.879 734.26V368.2H163.509V325.67H190.539V285.12H193.719V325.67H213.549C217.357 325.67 221.01 327.183 223.703 329.876C226.396 332.569 227.909 336.221 227.909 340.03V368.2H232.479C244.092 368.2 255.393 371.952 264.701 378.897C274.008 385.842 280.822 395.608 284.129 406.74C284.705 408.699 285.172 410.689 285.529 412.7C286.068 415.791 286.339 418.922 286.339 422.06Z" fill="#2F2E41"/>
<path d="M243.809 400.406H179.41V405.176H243.809V400.406Z" fill="white"/>
<path d="M243.809 429.823H179.41V434.593H243.809V429.823Z" fill="white"/>
<path d="M243.809 459.239H179.41V464.01H243.809V459.239Z" fill="white"/>
<path d="M243.809 488.656H179.41V493.426H243.809V488.656Z" fill="white"/>
<path d="M243.809 518.072H179.41V522.843H243.809V518.072Z" fill="white"/>
<path d="M243.809 547.489H179.41V552.259H243.809V547.489Z" fill="white"/>
<path d="M243.809 576.905H179.41V581.676H243.809V576.905Z" fill="white"/>
<path d="M243.809 606.322H179.41V611.092H243.809V606.322Z" fill="white"/>
<path d="M243.809 635.739H179.41V640.509H243.809V635.739Z" fill="white"/>
<path d="M243.809 665.155H179.41V669.925H243.809V665.155Z" fill="white"/>
<path d="M243.809 694.572H179.41V699.342H243.809V694.572Z" fill="white"/>
<path d="M243.809 723.988H179.41V728.758H243.809V723.988Z" fill="white"/>
<path d="M205.646 334.418H185.77V350.319H205.646V334.418Z" fill="white"/>
<path d="M681.328 13.98C681.238 13.7197 681.148 13.4697 681.048 13.21C678.048 5.35991 672.058 0 665.158 0H142.348C135.538 0 129.608 5.23 126.568 12.9199C125.117 16.6699 124.38 20.6588 124.398 24.6799L104.398 702.39C105.558 703.67 106.728 704.95 107.908 706.21C108.718 707.08 109.528 707.94 110.348 708.8L130.348 24.68C130.343 22.7412 130.599 20.8106 131.108 18.9399C131.11 18.9091 131.117 18.8786 131.128 18.8499C132.848 12.6299 137.228 8.19996 142.348 8.19996H665.158C666.384 8.2016 667.596 8.45696 668.718 8.94996C673.398 10.95 676.848 16.77 677.128 23.7598C677.138 24.0698 677.148 24.3699 677.148 24.6799L701.148 682.38C701.868 681.45 702.578 680.52 703.268 679.58C703.528 679.24 703.778 678.9 704.028 678.57C704.238 678.29 704.448 678.02 704.648 677.74C705.478 676.62 706.298 675.5 707.108 674.38V674.37L683.108 24.68C683.122 21.0385 682.52 17.4209 681.328 13.98ZM217.198 789.03C220.668 790.83 224.168 792.573 227.698 794.26L227.718 794.27C228.408 794.6 229.098 794.93 229.788 795.25C229.798 795.25 229.798 795.26 229.808 795.26C229.889 795.312 229.976 795.353 230.068 795.38C230.548 795.61 231.028 795.83 231.508 796.05H570.508C570.948 795.85 571.398 795.64 571.838 795.43C572.108 795.31 572.368 795.18 572.638 795.05C573.608 794.59 574.588 794.12 575.558 793.65C576.728 793.08 577.898 792.51 579.058 791.93C580.978 790.98 582.888 790.02 584.788 789.03H217.198Z" fill="#2F2E41"/>
<path d="M680.127 83.7072H127.375V90.6473H680.127V83.7072Z" fill="#2F2E41"/>
<path d="M687.738 169.707H121.738V176.647H687.738V169.707Z" fill="#2F2E41"/>
<path d="M213.408 304.38H207.449L227.449 3.11597H233.408L213.408 304.38Z" fill="#2F2E41"/>
<path d="M604.053 306.38H598.094L574.094 3.11597H580.053L604.053 306.38Z" fill="#2F2E41"/>
<path d="M690.738 296.256H122.738V316.12H690.738V296.256Z" fill="#2F2E41"/>
<path d="M407.765 285.297H413.724C415.158 285.297 416.579 285.58 417.904 286.129C419.23 286.678 420.434 287.482 421.449 288.497C422.463 289.511 423.268 290.716 423.817 292.041C424.366 293.367 424.649 294.787 424.649 296.222H396.84C396.84 293.325 397.991 290.546 400.04 288.497C402.088 286.448 404.867 285.297 407.765 285.297Z" fill="#2F2E41"/>
<path d="M205.74 765.38C196.74 774.38 197.44 778.13 194.01 776.06C189.94 773.6 185.913 771.067 181.93 768.46C180.69 767.65 179.45 766.83 178.21 766C177.09 765.25 175.98 764.5 174.87 763.74C170.95 761.06 167.08 758.31 163.26 755.49C159.31 752.58 155.417 749.597 151.58 746.54C146.58 742.56 141.68 738.466 136.88 734.26C127.93 726.44 119.347 718.227 111.13 709.62C110.87 709.35 110.61 709.08 110.35 708.8C109.53 707.94 108.72 707.08 107.91 706.21L111.98 691.51L116.98 477.26L117.28 412.7L117.3 406.74L121.74 313.38L121.77 307.42L124.35 181.55L124.37 176.65L124.41 169.71L110.47 156.16L130.77 90.65L130.8 83.71L131.11 18.94L131.13 13.65C141.72 4.0099 156.71 2.12003 175.04 3.81996C175.95 3.91004 176.88 4.00013 177.81 4.09996L178.06 8.20005L178.52 15.5099V15.5201L182.12 73.4801V73.5001L182.76 83.7101L183.19 90.6501L184.32 108.81L168.1 169.71L168.53 176.65L171.66 226.97L172.09 233.91L172.98 248.23L176.66 307.42L177.03 313.38L177.79 325.67L178.74 340.87L178.85 342.64L179.28 349.58L180.52 369.52L180.86 375.08L182.43 400.41L182.64 403.79L182.73 405.18L182.83 406.74L182.99 409.34L183.2 412.7L183.95 424.76L184.26 429.82L184.56 434.59L184.77 438.04L185.12 443.6L185.39 447.9L186.09 459.24L186.39 464.01L186.9 472.3L187.21 477.26L187.25 477.86L187.92 488.66L188.22 493.43L188.44 497.12L189.03 506.57L189.38 512.12L189.75 518.07L190.04 522.84L191.16 540.82L191.5 546.38L191.57 547.49L191.87 552.26L193.29 575.08L193.4 576.91L193.63 580.64L193.69 581.68L195.23 606.32L195.42 609.34L195.53 611.09L195.76 614.9L197.06 635.74L197.36 640.51L197.55 643.6L197.89 649.16L198.88 665.16L199.18 669.93L199.67 677.87L200.02 683.42L200.71 694.57L201.01 699.34L201.8 712.12L202.15 717.67L202.37 723.99L202.54 728.76L205.74 765.38Z" fill="#CCCCCC"/>
<path d="M704.1 695.09C703.83 695.41 703.55 695.72 703.27 696.04C702.58 696.85 701.87 697.65 701.15 698.45C701.14 698.46 701.14 698.47 701.13 698.48L701.1 698.51V698.52C679.602 722.774 655.249 744.337 628.57 762.74C628.481 762.809 628.387 762.872 628.29 762.93C627.96 763.17 627.63 763.39 627.3 763.62C624.91 765.26 622.5 766.88 620.07 768.46C618.88 769.24 617.69 770.01 616.49 770.77V770.78C616.48 770.78 616.48 770.78 616.47 770.79H616.45L616.43 770.81L616.37 770.84C616.34 770.86 616.32 770.87 616.29 770.89C615.37 771.48 614.46 772.06 613.53 772.64C613.25 772.83 612.97 773 612.69 773.17C612.2 773.48 611.7 773.79 611.2 774.1C610.71 774.4 610.21 774.71 609.71 775.01C609.08 775.39 608.45 775.78 607.82 776.15L607.86 772.85L607.92 768.46L608.21 748.28L609.21 732.16L615.14 636.75L616.08 621.65L616.29 618.25L618.96 575.32L619.87 560.58L621.94 527.38L622.87 512.28L623.78 497.69L623.82 497.12L623.9 495.76L623.95 494.93V494.92L625.01 477.98L625.05 477.26L625.8 465.28V465.26L626.87 447.9L627.55 437L628.31 424.76L628.92 414.95L629.06 412.7L629.43 406.74L629.45 406.5L631.75 369.4L632.35 359.73V359.72L632.98 349.58L633.41 342.64L634.3 328.46L635.24 313.38L635.61 307.42L636.92 286.26V286.25L637.65 274.47L638.38 262.67L639.46 245.41L640.17 233.91L640.6 226.97L643.72 176.65L643.86 174.47L644.16 169.71L645.17 153.43L623.48 116.21L625.07 90.6499L625.5 83.7099L630.06 10.3899L630.2 8.19991L630.45 4.09982C650.03 1.94991 666 3.52975 677.13 13.6498L677.44 83.7099L677.47 90.6498L683.8 167.36L683.81 169.71L683.84 176.65L686.41 307.42L686.44 313.38L690.84 406.74L690.87 412.7L693.15 477.26L693.24 497.12L704.03 678.57L704.1 695.09Z" fill="#CCCCCC"/>
<path d="M620.07 768.46C618.88 769.24 617.69 770.01 616.49 770.77V770.78C616.48 770.78 616.48 770.78 616.47 770.79H616.45L616.43 770.81L616.37 770.84C616.34 770.86 616.32 770.87 616.29 770.89C615.37 771.48 614.46 772.06 613.53 772.64C613.25 772.83 612.97 773 612.69 773.17C612.2 773.48 611.7 773.79 611.2 774.1C610.71 774.4 610.21 774.71 609.71 775.01C609.08 775.39 608.45 775.78 607.82 776.15C606.45 776.98 605.076 777.8 603.7 778.61C603.2 778.91 602.69 779.2 602.18 779.5C601.68 779.79 601.17 780.08 600.66 780.37V780.4L600.6 780.41L600.58 780.42L600.56 780.44H600.55C599.15 781.24 597.76 782.04 596.35 782.82L596.34 782.83C595.21 783.46 594.08 784.08 592.94 784.7C590.24 786.17 587.523 787.613 584.79 789.03C582.89 790.02 580.98 790.98 579.06 791.93C577.9 792.51 576.73 793.08 575.56 793.65C574.59 794.12 573.61 794.59 572.64 795.05C572.37 795.18 572.11 795.31 571.84 795.43C571.4 795.64 570.95 795.85 570.51 796.05C570.14 796.22 569.78 796.39 569.41 796.56C568.53 796.98 567.64 797.38 566.76 797.78C565.77 798.23 564.79 798.67 563.8 799.11C560.08 800.77 556.32 802.37 552.55 803.91C539.082 809.425 525.317 814.185 511.32 818.17C510.67 818.36 510.01 818.55 509.35 818.73C503.36 820.41 497.326 821.946 491.25 823.34C480.64 825.78 469.933 827.783 459.13 829.35C459.11 829.35 459.08 829.36 459.06 829.36C457.77 829.55 456.47 829.73 455.179 829.91C455.07 829.93 454.949 829.95 454.83 829.96C454.82 829.97 454.81 829.97 454.79 829.96H454.78C453.35 830.15 451.92 830.34 450.48 830.52C450.38 830.54 450.28 830.55 450.18 830.56C448.84 830.72 447.49 830.88 446.14 831.03C444.69 831.19 443.24 831.34 441.78 831.49H441.77C439.55 831.71 437.33 831.92 435.11 832.1C435.07 832.1 435.03 832.11 434.99 832.11C434.11 832.19 433.23 832.25 432.35 832.32H432.34C421.99 833.14 411.543 833.546 401 833.54C389.55 833.54 378.216 833.063 367 832.11C366.96 832.11 366.92 832.1 366.88 832.1C364.49 831.9 362.103 831.68 359.72 831.44C359.09 831.38 358.47 831.31 357.84 831.25C357.72 831.24 357.6 831.23 357.48 831.21C357.29 831.19 357.1 831.17 356.9 831.15C356.8 831.14 356.69 831.13 356.59 831.11C355.76 831.02 354.93 830.93 354.09 830.83C353.16 830.72 352.22 830.61 351.29 830.49C350.36 830.38 349.42 830.26 348.49 830.13C348.29 830.11 348.08 830.09 347.88 830.05C347.2 829.97 346.52 829.88 345.85 829.78C345.52 829.74 345.2 829.69 344.88 829.64C344.23 829.55 343.59 829.46 342.94 829.36C342.92 829.36 342.89 829.35 342.87 829.35C322.449 826.401 302.291 821.857 282.58 815.76H282.57C281.5 815.43 280.43 815.09 279.36 814.75C279.04 814.66 278.72 814.56 278.4 814.45C275.62 813.56 272.856 812.64 270.11 811.69C266.32 810.39 262.556 809.03 258.82 807.61C257.8 807.22 256.79 806.83 255.77 806.44C253.74 805.64 251.72 804.84 249.71 804.02C246.28 802.62 242.873 801.177 239.49 799.69H239.48V799.68C236.81 798.5 234.15 797.3 231.51 796.05C231.03 795.83 230.55 795.61 230.07 795.38C229.978 795.353 229.89 795.312 229.81 795.26C229.8 795.26 229.8 795.25 229.79 795.25C229.1 794.93 228.41 794.6 227.72 794.27L227.7 794.26C224.17 792.57 220.67 790.827 217.2 789.03C212.9 786.81 208.636 784.51 204.41 782.13C200.91 780.16 197.443 778.137 194.01 776.06C189.94 773.6 185.913 771.067 181.93 768.46H620.07Z" fill="#2F2E41"/>
<path d="M257.609 54.1132C258.714 54.1132 259.609 53.0703 259.609 51.7839C259.609 50.4975 258.714 49.4546 257.609 49.4546C256.505 49.4546 255.609 50.4975 255.609 51.7839C255.609 53.0703 256.505 54.1132 257.609 54.1132Z" fill="white"/>
<path d="M379.129 57.0019C380.233 57.0019 381.129 55.959 381.129 54.6726C381.129 53.3861 380.233 52.3433 379.129 52.3433C378.024 52.3433 377.129 53.3861 377.129 54.6726C377.129 55.959 378.024 57.0019 379.129 57.0019Z" fill="white"/>
<path d="M454.129 59.3312C455.233 59.3312 456.129 58.2883 456.129 57.0019C456.129 55.7155 455.233 54.6726 454.129 54.6726C453.024 54.6726 452.129 55.7155 452.129 57.0019C452.129 58.2883 453.024 59.3312 454.129 59.3312Z" fill="white"/>
<path d="M559.609 354.004C560.714 354.004 561.609 353.108 561.609 352.004C561.609 350.899 560.714 350.004 559.609 350.004C558.505 350.004 557.609 350.899 557.609 352.004C557.609 353.108 558.505 354.004 559.609 354.004Z" fill="white"/>
<path d="M438.129 241.484C439.233 241.484 440.129 240.588 440.129 239.484C440.129 238.379 439.233 237.484 438.129 237.484C437.024 237.484 436.129 238.379 436.129 239.484C436.129 240.588 437.024 241.484 438.129 241.484Z" fill="white"/>
<path d="M337.609 344.004C338.714 344.004 339.609 343.108 339.609 342.004C339.609 340.899 338.714 340.004 337.609 340.004C336.505 340.004 335.609 340.899 335.609 342.004C335.609 343.108 336.505 344.004 337.609 344.004Z" fill="white"/>
<path d="M320.609 239.004C321.714 239.004 322.609 238.108 322.609 237.004C322.609 235.899 321.714 235.004 320.609 235.004C319.505 235.004 318.609 235.899 318.609 237.004C318.609 238.108 319.505 239.004 320.609 239.004Z" fill="white"/>
<path d="M186.609 218.004C187.714 218.004 188.609 217.108 188.609 216.004C188.609 214.899 187.714 214.004 186.609 214.004C185.505 214.004 184.609 214.899 184.609 216.004C184.609 217.108 185.505 218.004 186.609 218.004Z" fill="white"/>
<path d="M643.741 626.353L641.742 626.407L644.742 736.33L646.741 736.275L643.741 626.353Z" fill="#B3B3B3"/>
<path d="M674.742 195.365L672.742 195.395L675.742 397.318L677.742 397.288L674.742 195.365Z" fill="#B3B3B3"/>
<path d="M606.041 404.004H577.805C577.168 404.002 576.538 404.14 575.96 404.407C575.381 404.675 574.869 405.066 574.458 405.554C574.064 405.478 573.665 405.439 573.264 405.439C571.488 405.439 569.784 406.144 568.528 407.4C567.272 408.656 566.566 410.36 566.566 412.136C566.566 413.912 567.272 415.616 568.528 416.872C569.784 418.128 571.488 418.833 573.264 418.833C574.275 418.833 575.273 418.602 576.18 418.156L576.651 423.943L578.523 446.817C578.612 447.102 578.731 447.378 578.879 447.638C579.257 448.333 579.816 448.912 580.495 449.316C581.175 449.721 581.952 449.934 582.743 449.934H601.104C601.895 449.933 602.672 449.72 603.353 449.316C604.033 448.912 604.593 448.332 604.973 447.638C605.117 447.376 605.234 447.101 605.323 446.817L610.261 409.716C610.464 409.056 610.509 408.357 610.393 407.676C610.277 406.995 610.003 406.351 609.592 405.795C609.182 405.24 608.647 404.788 608.03 404.477C607.413 404.166 606.732 404.004 606.041 404.004ZM573.264 416.922C571.996 416.92 570.78 416.415 569.884 415.518C568.988 414.62 568.485 413.404 568.485 412.136C568.485 410.868 568.988 409.652 569.884 408.755C570.78 407.858 571.996 407.353 573.264 407.351C573.35 407.351 573.43 407.374 573.516 407.379C573.327 408.15 573.351 408.958 573.585 409.716L575.606 416.284C574.894 416.698 574.087 416.918 573.264 416.922Z" fill="#F2F2F2"/>
<path d="M596.351 782.824L591.641 774.244L593.961 773.153L595.811 772.274L603.881 768.464L608.731 766.174L610.731 765.224L612.321 764.474L614.961 768.464L616.291 770.474L616.491 770.774V770.784C616.449 770.8 616.409 770.82 616.371 770.843C616.341 770.863 616.321 770.874 616.291 770.894C615.371 771.484 614.461 772.064 613.531 772.644C613.251 772.834 612.971 773.004 612.691 773.173C612.201 773.484 611.701 773.794 611.201 774.104C610.711 774.403 610.211 774.713 609.711 775.014C607.721 776.234 605.711 777.433 603.701 778.613C603.201 778.913 602.691 779.203 602.181 779.504C601.681 779.794 601.171 780.084 600.661 780.374V780.403L600.601 780.413L600.581 780.423L600.561 780.443H600.551C599.151 781.244 597.761 782.044 596.351 782.824Z" fill="#2F2E41"/>
<g opacity="0.49">
<path d="M591.592 388.97C591.821 388.668 592.027 388.351 592.211 388.02C591.856 388.166 591.488 388.282 591.113 388.364L591.592 388.97Z" fill="white"/>
<path d="M594.173 368.569C592.373 365.123 590.353 361.698 589.631 357.877C588.908 354.05 589.543 350.118 589.763 346.229C589.984 342.34 589.707 338.184 587.458 335.004C584.39 344.718 581.35 355.421 585.275 364.821C586.977 368.899 589.879 372.371 591.75 376.375C593.458 380.03 594.151 384.587 592.209 388.02C595.376 386.74 597.358 383.111 597.481 379.615C597.617 375.729 595.973 372.016 594.173 368.569Z" fill="white"/>
</g>
<g opacity="0.49">
<path d="M588.198 401.97C588.286 401.853 588.367 401.73 588.438 401.601C588.3 401.658 588.157 401.703 588.012 401.735L588.198 401.97Z" fill="white"/>
<path d="M589.199 394.044C588.411 392.754 587.816 391.354 587.435 389.89C587.269 388.385 587.286 386.866 587.486 385.365C587.684 383.852 587.368 382.316 586.591 381.004C585.399 384.778 584.217 388.936 585.742 392.588C586.404 394.172 587.531 395.521 588.258 397.077C588.634 397.766 588.846 398.533 588.877 399.318C588.908 400.103 588.757 400.884 588.436 401.601C589.047 401.3 589.563 400.836 589.924 400.259C590.286 399.682 590.48 399.016 590.485 398.336C590.432 396.819 589.989 395.341 589.199 394.044Z" fill="white"/>
</g>
<path d="M196.238 94.8799H133.238C131.382 94.8799 129.601 94.1424 128.289 92.8296C126.976 91.5169 126.238 89.7364 126.238 87.8799C126.238 86.0234 126.976 84.2429 128.289 82.9301C129.601 81.6174 131.382 80.8799 133.238 80.8799H196.238C198.095 80.8799 199.875 81.6174 201.188 82.9301C202.501 84.2429 203.238 86.0234 203.238 87.8799C203.238 89.7364 202.501 91.5169 201.188 92.8296C199.875 94.1424 198.095 94.8799 196.238 94.8799Z" fill="#2F2E41"/>
<path d="M736.254 14.3799H75.2539C73.3974 14.3799 71.6169 13.6424 70.3042 12.3296C68.9914 11.0169 68.2539 9.2364 68.2539 7.37988C68.2539 5.52337 68.9914 3.74289 70.3042 2.43013C71.6169 1.11738 73.3974 0.379883 75.2539 0.379883H736.254C738.11 0.379883 739.891 1.11738 741.204 2.43013C742.516 3.74289 743.254 5.52337 743.254 7.37988C743.254 9.2364 742.516 11.0169 741.204 12.3296C739.891 13.6424 738.11 14.3799 736.254 14.3799Z" fill="#2F2E41"/>
<path d="M174.238 164.88H111.238C109.382 164.88 107.601 164.142 106.289 162.83C104.976 161.517 104.238 159.736 104.238 157.88C104.238 156.023 104.976 154.243 106.289 152.93C107.601 151.617 109.382 150.88 111.238 150.88H174.238C176.095 150.88 177.875 151.617 179.188 152.93C180.501 154.243 181.238 156.023 181.238 157.88C181.238 159.736 180.501 161.517 179.188 162.83C177.875 164.142 176.095 164.88 174.238 164.88Z" fill="#2F2E41"/>
<path d="M676.242 94.8799H613.242C611.386 94.8799 609.605 94.1424 608.292 92.8296C606.98 91.5169 606.242 89.7364 606.242 87.8799C606.242 86.0234 606.98 84.2429 608.292 82.9301C609.605 81.6174 611.386 80.8799 613.242 80.8799H676.242C678.099 80.8799 679.879 81.6174 681.192 82.9301C682.505 84.2429 683.242 86.0234 683.242 87.8799C683.242 89.7364 682.505 91.5169 681.192 92.8296C679.879 94.1424 678.099 94.8799 676.242 94.8799Z" fill="#2F2E41"/>
<path d="M701.242 161.88H638.242C636.386 161.88 634.605 161.142 633.292 159.83C631.98 158.517 631.242 156.736 631.242 154.88C631.242 153.023 631.98 151.243 633.292 149.93C634.605 148.617 636.386 147.88 638.242 147.88H701.242C703.099 147.88 704.879 148.617 706.192 149.93C707.505 151.243 708.242 153.023 708.242 154.88C708.242 156.736 707.505 158.517 706.192 159.83C704.879 161.142 703.099 161.88 701.242 161.88Z" fill="#2F2E41"/>
<path d="M136.742 186.365L134.742 186.395L137.742 388.318L139.742 388.288L136.742 186.365Z" fill="#B3B3B3"/>
<path d="M156.742 418.365L154.742 418.395L157.742 620.318L159.742 620.288L156.742 418.365Z" fill="#B3B3B3"/>
<path d="M134.741 589.353L132.742 589.407L135.742 699.33L137.741 699.275L134.741 589.353Z" fill="#B3B3B3"/>
<path d="M533.08 659.733V655.916C533.079 654.458 532.521 653.055 531.52 651.995C530.519 650.935 529.151 650.297 527.695 650.213V635.308H526.428V650.196H520.726V659.699H493.801V768.983H553.353V681.158C553.353 675.672 551.251 670.395 547.481 666.41C543.71 662.425 538.557 660.036 533.08 659.733Z" fill="#2F2E41"/>
<path d="M511.536 675.22H503.617V681.555H511.536V675.22Z" fill="white"/>
<path d="M524.525 675.22H516.605V681.555H524.525V675.22Z" fill="white"/>
<path d="M537.513 675.22H529.594V681.555H537.513V675.22Z" fill="white"/>
<path d="M511.536 691.375H503.617V697.711H511.536V691.375Z" fill="white"/>
<path d="M524.525 691.375H516.605V697.711H524.525V691.375Z" fill="white"/>
<path d="M537.513 691.375H529.594V697.711H537.513V691.375Z" fill="white"/>
<path d="M511.536 707.53H503.617V713.866H511.536V707.53Z" fill="white"/>
<path d="M524.525 707.53H516.605V713.866H524.525V707.53Z" fill="white"/>
<path d="M537.513 707.53H529.594V713.866H537.513V707.53Z" fill="white"/>
<path d="M511.536 723.685H503.617V730.021H511.536V723.685Z" fill="white"/>
<path d="M524.525 723.685H516.605V730.021H524.525V723.685Z" fill="white"/>
<path d="M537.513 723.685H529.594V730.021H537.513V723.685Z" fill="white"/>
<path d="M511.536 739.84H503.617V746.176H511.536V739.84Z" fill="white"/>
<path d="M524.525 739.84H516.605V746.176H524.525V739.84Z" fill="white"/>
<path d="M537.513 739.84H529.594V746.176H537.513V739.84Z" fill="white"/>
<path d="M511.536 755.995H503.617V762.331H511.536V755.995Z" fill="white"/>
<path d="M524.525 755.995H516.605V762.331H524.525V755.995Z" fill="white"/>
<path d="M537.513 755.995H529.594V762.331H537.513V755.995Z" fill="white"/>
<path d="M473.984 606.482H472.16V595.255C472.16 593.738 471.558 592.283 470.485 591.21C469.412 590.138 467.957 589.535 466.44 589.535H458.539V573.38H457.272V589.535H446.502V606.482H435.891V768.983H495.443V627.941C495.443 625.123 494.888 622.332 493.809 619.729C492.731 617.125 491.15 614.76 489.157 612.767C487.165 610.774 484.799 609.194 482.196 608.115C479.592 607.037 476.802 606.482 473.984 606.482Z" fill="#2F2E41"/>
<path d="M478.498 619.311H452.84V621.212H478.498V619.311Z" fill="white"/>
<path d="M478.498 631.031H452.84V632.932H478.498V631.031Z" fill="white"/>
<path d="M478.498 642.752H452.84V644.652H478.498V642.752Z" fill="white"/>
<path d="M478.498 654.472H452.84V656.373H478.498V654.472Z" fill="white"/>
<path d="M478.498 666.192H452.84V668.093H478.498V666.192Z" fill="white"/>
<path d="M478.498 677.913H452.84V679.813H478.498V677.913Z" fill="white"/>
<path d="M478.498 689.633H452.84V691.534H478.498V689.633Z" fill="white"/>
<path d="M478.498 701.353H452.84V703.254H478.498V701.353Z" fill="white"/>
<path d="M478.498 713.074H452.84V714.974H478.498V713.074Z" fill="white"/>
<path d="M478.498 724.794H452.84V726.695H478.498V724.794Z" fill="white"/>
<path d="M478.498 736.514H452.84V738.415H478.498V736.514Z" fill="white"/>
<path d="M478.498 748.235H452.84V750.135H478.498V748.235Z" fill="white"/>
<path d="M463.294 593.019H455.375V599.355H463.294V593.019Z" fill="white"/>
<path d="M716.858 670.294V679.613C715.418 681.453 713.958 683.294 712.478 685.104C712.158 685.504 711.838 685.894 711.528 686.284C711.038 686.874 710.558 687.464 710.078 688.044C709.918 688.244 709.758 688.433 709.588 688.633C708.768 689.613 707.948 690.593 707.108 691.574C707.108 691.574 707.118 691.584 707.108 691.584C706.298 692.544 705.478 693.504 704.648 694.464C704.198 694.994 703.738 695.514 703.268 696.044C702.578 696.854 701.868 697.653 701.148 698.453C701.138 698.463 701.138 698.474 701.128 698.484L701.098 698.513V670.294L716.858 670.294Z" fill="#2F2E41"/>
<path d="M737.42 650.854C734.8 654.894 732.11 658.874 729.35 662.794C729.35 662.804 729.34 662.804 729.33 662.814C727.68 665.174 725.99 667.514 724.29 669.834C723.2 671.314 722.1 672.787 720.99 674.254C719.88 675.724 718.76 677.18 717.63 678.624C717.38 678.954 717.12 679.284 716.86 679.613C715.42 681.454 713.96 683.294 712.48 685.104C712.16 685.504 711.84 685.894 711.53 686.284C711.04 686.874 710.56 687.464 710.08 688.044C709.91 688.244 709.75 688.434 709.59 688.633C708.77 689.613 707.95 690.593 707.11 691.574C707.11 691.574 707.12 691.584 707.11 691.584C706.3 692.544 705.48 693.504 704.65 694.464C704.2 694.994 703.74 695.514 703.27 696.044H670.62C667.136 696.041 663.795 694.656 661.332 692.192C658.868 689.729 657.483 686.388 657.48 682.903V663.994C657.485 660.51 658.87 657.17 661.334 654.707C663.797 652.243 667.137 650.858 670.62 650.854H737.42Z" fill="#2F2E41"/>
<path d="M754.685 488.995C752.678 488.302 750.569 487.951 748.445 487.955H743.075C741.119 487.957 739.175 488.25 737.305 488.825C733.363 490.065 729.917 492.528 727.47 495.858C725.023 499.189 723.7 503.212 723.695 507.345V665.095C723.695 665.685 723.725 666.265 723.775 666.835C723.862 667.848 724.033 668.851 724.285 669.835C725.985 667.515 727.675 665.175 729.325 662.815C729.335 662.805 729.345 662.805 729.345 662.795C732.105 658.875 734.795 654.895 737.415 650.855C738.825 648.685 740.225 646.495 741.595 644.295C751.495 628.412 760.264 611.851 767.835 594.735V507.345C767.831 503.297 766.561 499.352 764.203 496.062C761.845 492.771 758.517 490.301 754.685 488.995Z" fill="#2F2E41"/>
<path d="M521.419 782.347L507.805 775.836L526.506 718.931L546.599 728.541L521.419 782.347Z" fill="#FFB6B6"/>
<path d="M612.688 773.173C611.698 773.794 610.708 774.403 609.708 775.014C607.718 776.234 605.708 777.433 603.698 778.613C602.688 779.203 601.668 779.794 600.658 780.374V780.403L600.598 780.413L600.578 780.423L599.038 780.804L596.828 774.964L595.808 772.274L594.368 768.464L591.728 761.494L577.828 724.794L599.438 719.464L600.248 722.774H600.258L600.658 724.413L608.208 755.034L609.748 761.294L609.798 761.483L610.728 765.224L611.528 768.464L612.418 772.084L612.688 773.173Z" fill="#FFB6B6"/>
<path d="M557.571 535.014C559.513 538.167 562.61 540.437 566.202 541.338C569.795 542.239 573.597 541.701 576.797 539.837C577.441 539.448 578.051 539.005 578.621 538.515L621.662 563.215L619.793 537.86L579.207 518.292C576.999 516.073 574.117 514.65 571.013 514.246C567.909 513.842 564.759 514.479 562.056 516.058C558.962 517.915 556.732 520.926 555.858 524.427C554.984 527.929 555.537 531.634 557.395 534.728C557.452 534.824 557.511 534.919 557.571 535.014Z" fill="#FFB6B6"/>
<path d="M743.266 628.725C743.256 628.695 743.236 628.585 743.206 628.415L743.176 628.305C743.106 627.945 743.026 627.545 742.936 627.105C740.896 616.973 738.275 606.967 735.086 597.135C733.197 591.115 730.694 585.304 727.616 579.795C727.516 579.615 727.406 579.435 727.296 579.255L726.926 578.655L723.816 579.795L723.696 579.835L676.416 597.165L662.746 602.175L662.316 602.335L659.986 611.835L627.296 607.605L600.656 604.155L593.006 603.165C589.69 602.733 586.321 602.965 583.095 603.847C579.869 604.73 576.851 606.245 574.216 608.305C571.467 610.437 569.169 613.094 567.458 616.123C565.746 619.151 564.654 622.491 564.246 625.945C564.146 626.705 564.086 627.475 564.056 628.235L561.746 714.405V714.515L562.816 716.655L585.166 761.495H600.656L609.796 761.485H617.226L601.776 722.395L602.126 721.865C603.58 719.637 604.496 717.101 604.803 714.459C605.11 711.816 604.8 709.138 603.896 706.635L605.636 701.595C609.246 691.185 607.536 686.185 605.376 679.865C603.436 674.726 602.296 669.32 601.996 663.835L601.636 656.705C610.706 658.295 619.156 660.065 627.296 661.845C630.016 662.435 632.709 663.032 635.376 663.635C642.966 665.325 650.296 666.955 657.476 668.315C672.016 671.085 685.946 672.775 700.256 671.725C700.536 671.705 700.816 671.685 701.096 671.655C704.576 671.375 708.076 670.925 711.616 670.295C713.606 669.935 715.606 669.525 717.626 669.045C718.186 668.905 718.756 668.765 719.316 668.625C720.871 668.215 722.369 667.614 723.776 666.835C725.777 665.718 727.64 664.369 729.326 662.815C729.336 662.805 729.346 662.805 729.346 662.795C732.106 658.875 734.796 654.895 737.416 650.855C738.826 648.685 740.226 646.495 741.596 644.295C743.596 638.805 744.356 633.265 743.266 628.725Z" fill="#2F2E41"/>
<path d="M743.596 612.535C743.446 611.895 743.256 611.245 743.056 610.615C741.469 605.844 739.619 601.163 737.516 596.595C735.156 591.395 732.326 585.825 728.956 579.795C727.326 576.875 725.573 573.839 723.696 570.685C722.756 569.105 721.78 567.495 720.766 565.855C720.727 565.78 720.683 565.706 720.636 565.635L720.346 565.155L673.566 571.415L656.146 573.745L655.106 582.425L654.856 584.575C654.846 584.575 654.846 584.575 654.856 584.585L654.156 590.445V590.455L653.226 598.195L653.146 598.185L627.296 594.835L600.656 591.385L586.346 589.535C583.03 589.103 579.661 589.335 576.435 590.217C573.209 591.1 570.191 592.615 567.556 594.675C564.807 596.807 562.509 599.464 560.798 602.493C559.086 605.521 557.994 608.861 557.586 612.315C557.496 613.015 557.436 613.735 557.406 614.445L543.906 646.435C535.828 665.567 530.683 685.808 528.646 706.475L518.746 738.125L520.156 738.255L541.136 740.205L546.676 740.725L558.876 722.915C560.266 720.885 561.586 718.795 562.816 716.655C564.841 713.16 566.642 709.539 568.206 705.815L594.596 643.015C596.636 643.365 598.656 643.699 600.656 644.015C609.906 645.515 618.786 646.739 627.296 647.685C654.966 650.775 678.926 651.015 700.256 648.395C706.246 647.665 712.036 646.705 717.626 645.515C719.676 645.085 721.699 644.622 723.696 644.125C724.166 644.015 724.626 643.905 725.086 643.785C729.219 642.719 733.018 640.634 736.137 637.72C739.255 634.806 741.593 631.156 742.936 627.105C744.54 622.411 744.769 617.356 743.596 612.535Z" fill="#2F2E41"/>
<path d="M644.12 423.666C661.991 423.666 676.479 408.856 676.479 390.586C676.479 372.317 661.991 357.507 644.12 357.507C626.249 357.507 611.762 372.317 611.762 390.586C611.762 408.856 626.249 423.666 644.12 423.666Z" fill="#FFB6B6"/>
<path opacity="0.2" d="M607.832 512.975C610.839 520.339 615.065 527.144 620.334 533.103C621.236 534.18 622.189 535.239 623.187 536.299L628.305 544.331C647.175 530.188 662.463 474.499 662.463 474.499L641.173 470.357L607.832 512.975Z" fill="black"/>
<path d="M594.943 426.756C596.808 429.959 597.349 433.762 596.452 437.357C595.555 440.952 593.29 444.056 590.14 446.007C589.493 446.393 588.816 446.726 588.114 447L589.621 496.603L568.141 483.081L570.003 438.05C569.089 435.054 569.192 431.839 570.298 428.907C571.403 425.976 573.448 423.493 576.113 421.846C579.193 419.982 582.888 419.419 586.384 420.279C589.88 421.14 592.891 423.354 594.755 426.435C594.819 426.541 594.882 426.648 594.943 426.756Z" fill="#FFB6B6"/>
<path d="M525.766 773.055L511.036 765.995L508.726 764.885L505.036 773.945L479.276 779.615C478.002 779.894 476.851 780.574 475.991 781.554C475.131 782.534 474.607 783.763 474.495 785.062C474.383 786.361 474.69 787.662 475.37 788.775C476.051 789.887 477.069 790.753 478.276 791.245L503.446 801.515L511.436 794.325L509.476 803.975L518.956 807.845L529.346 774.775L525.766 773.055Z" fill="#2F2E41"/>
<path d="M730.711 376.24C725.21 369.826 722.595 361.316 718.198 354.032C713.801 346.748 706.15 340.229 698.066 341.924C692.494 343.093 688.187 348.01 686.007 353.492C683.827 358.974 683.419 365.02 683.037 370.942C683.172 358.771 675.153 346.972 664.107 343.088C653.062 339.205 639.843 343.537 632.902 353.315C629.873 350.507 625.919 348.909 621.79 348.822C617.661 348.736 613.644 350.167 610.5 352.845C604.292 358.393 602.918 368.954 607.484 376.032C612.049 383.11 621.938 385.746 629.193 381.821L631.759 384.18C630.315 389.231 633.115 395.196 637.822 397.097C641.639 398.639 647.027 398.382 648.455 402.388C649.454 405.186 647.588 408.174 645.603 410.325C643.619 412.475 641.263 414.696 641.025 417.672C640.665 422.163 645.305 425.308 649.523 426.256C659.695 428.54 670.981 423.83 676.843 414.853C676.956 414.68 677.079 414.507 677.212 414.333C680.501 410.127 682.898 405.295 684.256 400.131C685.615 394.967 685.906 389.58 685.112 384.3C684.783 382.225 685.115 380.682 686.545 380.191C692.728 378.067 710.05 382.524 715.292 386.553C720.535 390.581 724.733 395.912 729.782 400.201C734.832 404.489 741.267 407.797 747.678 406.629C752.813 405.694 757.182 401.966 760.12 397.469C763.058 392.972 764.749 387.731 766.264 382.522C754.909 389.081 739.368 386.335 730.711 376.24Z" fill="#2F2E41"/>
<path d="M628.57 762.744V762.964L628.289 762.934C627.959 763.174 627.629 763.394 627.299 763.624C624.909 765.264 622.5 766.877 620.07 768.464C618.88 769.244 617.69 770.014 616.49 770.774V770.784C616.48 770.784 616.47 770.794 616.46 770.794H616.45L616.43 770.814L616.37 770.843C616.34 770.863 616.319 770.874 616.289 770.894V586.034C616.289 580.673 614.49 576.324 612.28 576.314H445.789C443.569 576.324 441.78 580.673 441.77 586.034V831.494C439.55 831.714 437.329 831.924 435.109 832.104C435.069 832.104 435.03 832.113 434.99 832.113C434.11 832.194 433.229 832.254 432.349 832.324H432.34C431.81 831.343 431.289 830.354 430.77 829.354V573.423C430.77 571.943 430.83 570.453 430.93 568.984C431.072 566.965 431.323 564.955 431.68 562.964C433.37 553.674 437.19 547.383 441.53 547.363H616.53C617.163 547.368 617.789 547.5 618.37 547.754C619.222 548.131 619.993 548.671 620.64 549.343C621.517 550.255 622.267 551.281 622.87 552.394C625.01 556.164 626.54 561.784 627.08 568.324C627.08 568.383 627.09 568.444 627.09 568.504C627.229 570.124 627.3 571.774 627.289 573.424L627.429 594.854L627.519 607.633L627.789 647.734L627.889 661.974L628.57 762.744Z" fill="#2F2E41"/>
<path d="M497.613 487.911L486.032 538.866L478.632 546.972H473.293L495.297 454.326L496.385 470.065V470.076L497.613 487.911Z" fill="#2F2E41"/>
<path d="M553.346 539.985L485.406 539.555L479.377 539.515L475.077 539.485L470.067 539.455H470.026C469.3 539.457 468.603 539.744 468.086 540.255L459.627 548.715C459.439 548.9 459.287 549.117 459.176 549.355C459.124 549.423 459.08 549.497 459.046 549.575C458.863 550.001 458.788 550.465 458.826 550.926C458.865 551.388 459.016 551.833 459.267 552.222C459.518 552.611 459.861 552.933 460.265 553.158C460.67 553.384 461.123 553.506 461.586 553.515H549.596C550.125 553.513 550.642 553.362 551.087 553.079C551.533 552.796 551.89 552.393 552.116 551.915L552.806 550.415L554.226 547.365L555.836 543.925C556.008 543.559 556.097 543.16 556.096 542.755C556.093 542.025 555.802 541.326 555.288 540.808C554.774 540.29 554.076 539.994 553.346 539.985Z" fill="#2F2E41"/>
<path opacity="0.17" d="M552.806 550.413L552.111 551.918C551.885 552.394 551.529 552.797 551.084 553.079C550.64 553.362 550.125 553.514 549.598 553.517H461.584C461.121 553.508 460.668 553.386 460.263 553.161C459.859 552.935 459.516 552.614 459.266 552.224C459.015 551.835 458.864 551.39 458.826 550.929C458.788 550.468 458.864 550.004 459.048 549.579C459.079 549.5 459.122 549.425 459.175 549.359L552.806 550.413Z" fill="black"/>
<path opacity="0.17" d="M496.385 470.065V470.076L477.543 546.972H473.293L495.297 454.326L496.385 470.065Z" fill="black"/>
<path d="M519.508 484.155L492.838 281.245C492.741 280.485 492.345 279.794 491.738 279.325L473.378 256.345L471.728 255.075C471.117 254.613 470.349 254.408 469.588 254.505L466.828 254.875C466.067 254.973 465.376 255.37 464.907 255.978C464.439 256.585 464.23 257.354 464.328 258.115L491.968 468.355V468.365L493.658 481.225L495.668 496.495V496.515L498.788 520.275C498.838 520.682 498.976 521.074 499.191 521.423C499.407 521.771 499.696 522.069 500.038 522.295C500.375 522.527 500.756 522.684 501.158 522.756C501.56 522.829 501.973 522.815 502.368 522.715L504.118 522.275C504.789 522.103 505.377 521.699 505.778 521.135L506.558 520.025L506.918 519.505L518.998 486.205C519.422 485.611 519.605 484.879 519.508 484.155Z" fill="#2F2E41"/>
<path opacity="0.17" d="M473.374 256.346L506.922 519.51L506.558 520.025L505.78 521.132C505.379 521.696 504.791 522.1 504.12 522.272L502.367 522.713C501.971 522.811 501.558 522.825 501.155 522.753C500.753 522.681 500.371 522.524 500.033 522.294C499.695 522.064 499.41 521.765 499.195 521.417C498.981 521.069 498.842 520.68 498.788 520.275L464.333 258.118C464.233 257.357 464.44 256.587 464.908 255.978C465.375 255.369 466.065 254.971 466.826 254.871L469.593 254.507C469.969 254.456 470.351 254.481 470.717 254.579C471.082 254.677 471.425 254.848 471.725 255.08L473.374 256.346Z" fill="black"/>
<path d="M603.158 553.914L644.935 579.387C647.178 580.79 649.675 581.738 652.284 582.176C654.894 582.615 657.564 582.535 660.142 581.941C662.72 581.347 665.156 580.252 667.311 578.716C669.466 577.181 671.297 575.237 672.701 572.994L672.712 572.976C675.242 568.808 676.137 563.85 675.224 559.06L660.038 483.187C659.477 480.208 658.279 477.386 656.527 474.913C654.775 472.44 652.509 470.374 649.885 468.857C647.261 467.34 644.341 466.408 641.323 466.124C638.306 465.839 635.262 466.21 632.401 467.21C627.592 468.9 623.607 472.359 621.258 476.883C618.908 481.406 618.371 486.655 619.754 491.561L635.634 545.407L611.292 534.058L603.158 553.914Z" fill="url(#paint0_linear_388_441)"/>
<path d="M720.956 566.965C720.905 566.595 720.845 566.225 720.766 565.855C719.996 561.795 717.996 557.815 716.066 553.955C714.226 550.275 712.476 546.795 711.756 543.335C711.046 539.925 711.466 536.505 711.876 533.205C712.316 529.625 712.776 525.925 711.746 522.335C706.522 504.001 699.347 486.28 690.346 469.475C688.074 462.086 683.72 455.509 677.805 450.532C671.89 445.555 664.664 442.389 656.996 441.415C657.891 439.744 658.264 437.841 658.066 435.955C657.94 434.737 657.574 433.555 656.989 432.479C656.404 431.402 655.61 430.453 654.656 429.685C653.738 428.946 652.684 428.396 651.552 428.067C650.421 427.737 649.236 427.635 648.066 427.765L633.026 429.455C630.614 429.758 628.42 431 626.92 432.912C625.42 434.824 624.736 437.251 625.016 439.665C625.1 440.408 625.268 441.14 625.516 441.845C611.556 459.625 604.386 475.825 603.726 491.145V491.155C603.646 492.925 603.656 494.697 603.756 496.465C604.072 502.185 605.315 507.815 607.436 513.135C609.94 519.282 613.292 525.048 617.396 530.265C618.236 531.325 619.106 532.365 620.006 533.385C620.846 534.385 621.786 535.435 622.826 536.535L625.456 540.655L627.906 544.505L641.006 574.735L647.676 574.515L648.606 581.165L648.826 582.715L653.146 598.185L653.466 599.345L720.996 567.275L720.956 566.965Z" fill="url(#paint1_linear_388_441)"/>
<path d="M591.508 477.88L567.886 481.239L568.902 530.157C568.96 533.647 569.911 537.063 571.662 540.082C573.413 543.101 575.908 545.622 578.908 547.406C582.573 549.562 586.84 550.469 591.065 549.989C595.291 549.51 599.245 547.669 602.334 544.746L658.104 491.103C662.028 487.381 664.376 482.296 664.666 476.896C664.956 471.495 663.165 466.188 659.662 462.067C656.23 458.004 651.324 455.471 646.024 455.025C640.724 454.58 635.464 456.257 631.401 459.69C631.242 459.824 631.085 459.961 630.931 460.1C630.38 460.593 629.855 461.115 629.36 461.664L592.535 504.028L591.508 477.88Z" fill="url(#paint2_linear_388_441)"/>
<path d="M474.359 263.872L492.162 289.283L513.322 450.284L501.85 473.043L474.359 263.872Z" fill="url(#paint3_linear_388_441)"/>
<path d="M743.101 588.474C743.101 590.232 742.567 591.95 741.571 593.4C740.575 594.849 739.163 595.963 737.521 596.593C736.742 596.892 735.923 597.074 735.091 597.133C734.871 597.153 734.641 597.163 734.421 597.163H717.631V678.624C717.381 678.953 717.121 679.284 716.861 679.613C715.421 681.453 713.961 683.294 712.481 685.104C712.161 685.503 711.841 685.894 711.531 686.284C711.041 686.874 710.561 687.463 710.081 688.044C709.911 688.243 709.751 688.433 709.591 688.633C708.771 689.613 707.951 690.593 707.111 691.574C707.111 691.574 707.121 691.584 707.111 691.584C706.301 692.544 705.481 693.504 704.651 694.463C703.136 693.618 701.915 692.331 701.151 690.773C701.141 690.763 701.141 690.754 701.131 690.734C701.119 690.711 701.109 690.688 701.101 690.663C700.54 689.493 700.253 688.211 700.261 686.913V597.163H662.621C661.51 597.17 660.409 596.956 659.381 596.534C658.085 596.016 656.934 595.193 656.025 594.134C655.116 593.076 654.476 591.813 654.161 590.453V590.443C653.692 588.469 653.941 586.392 654.861 584.584C654.851 584.574 654.851 584.574 654.861 584.574C655.253 583.783 655.77 583.06 656.391 582.433C656.391 582.423 656.391 582.423 656.401 582.413C657.211 581.585 658.179 580.926 659.247 580.476C660.315 580.027 661.462 579.794 662.621 579.794H734.421C736.723 579.795 738.93 580.71 740.557 582.337C742.185 583.965 743.1 586.172 743.101 588.474Z" fill="#2F2E41"/>
<path d="M742.523 421.137C738.949 421.137 735.411 421.841 732.109 423.209C728.807 424.577 725.807 426.581 723.28 429.108C720.753 431.635 718.748 434.636 717.38 437.937C716.013 441.239 715.309 444.778 715.309 448.352C715.31 454.665 717.505 460.782 721.519 465.654C725.533 470.527 731.116 473.853 737.312 475.063V519.573H754.683V421.137H742.523Z" fill="#2F2E41"/>
<path d="M632.547 351.85C639.983 361.723 649.705 385.57 646.169 397.414Z" fill="#FD6584"/>
</g>
<defs>
<linearGradient id="paint0_linear_388_441" x1="474.359" y1="597.071" x2="772.448" y2="351.956" gradientUnits="userSpaceOnUse">
<stop offset="0.161841" stop-color="#7000FF"/>
<stop offset="1" stop-color="#FF5D3D"/>
</linearGradient>
<linearGradient id="paint1_linear_388_441" x1="474.359" y1="597.071" x2="772.448" y2="351.956" gradientUnits="userSpaceOnUse">
<stop offset="0.161841" stop-color="#7000FF"/>
<stop offset="1" stop-color="#FF5D3D"/>
</linearGradient>
<linearGradient id="paint2_linear_388_441" x1="474.359" y1="597.071" x2="772.448" y2="351.956" gradientUnits="userSpaceOnUse">
<stop offset="0.161841" stop-color="#7000FF"/>
<stop offset="1" stop-color="#FF5D3D"/>
</linearGradient>
<linearGradient id="paint3_linear_388_441" x1="474.359" y1="597.071" x2="772.448" y2="351.956" gradientUnits="userSpaceOnUse">
<stop offset="0.161841" stop-color="#7000FF"/>
<stop offset="1" stop-color="#FF5D3D"/>
</linearGradient>
<clipPath id="clip0_388_441">
<rect width="802.001" height="833.54" fill="white"/>
</clipPath>
</defs>
</svg>
